<?xml version="1.0" encoding="utf-8"?>
<!-- Generator: Adobe Illustrator 21.0.2, SVG Export Plug-In . SVG Version: 6.00 Build 0)  -->
<svg version="1.1" id="Layer_1" xmlns="http://www.w3.org/2000/svg" xmlns:xlink="http://www.w3.org/1999/xlink" x="0px" y="0px"
	 width="1400px" height="980px" viewBox="0 0 1400 980" enable-background="new 0 0 1400 980" xml:space="preserve">
<linearGradient id="SVGID_1_" gradientUnits="userSpaceOnUse" x1="700" y1="0" x2="700" y2="980">
	<stop  offset="0" style="stop-color:#4B8CE0"/>
	<stop  offset="1" style="stop-color:#005CD3"/>
</linearGradient>
<rect fill="url(#SVGID_1_)" width="1400" height="980"/>
<g>
	<g>
		<path fill="#FFFFFF" d="M177.4,820.1c-30.9,0-56,25.1-56,56s25.1,56,56,56s56-25.1,56-56S208.3,820.1,177.4,820.1z M177.4,927.4
			c-28.3,0-51.3-23-51.3-51.3c0-28.3,23-51.3,51.3-51.3s51.3,23,51.3,51.3C228.7,904.4,205.7,927.4,177.4,927.4z"/>
		<path fill="#FFFFFF" d="M214.2,850c2.2,5.6,3.4,11.7,3.4,18.1c0,28-22.7,50.7-50.7,50.7c-1.5,0-3-0.1-4.5-0.2
			c4.7,1.7,9.7,2.6,15,2.6c24.9,0,45.1-20.2,45.1-45.1C222.5,866.4,219.4,857.4,214.2,850z"/>
		<path fill="#FFFFFF" d="M183,837.3c1.7-2.8-11.1-10.5-25.8-3.9c-14.7,6.6-17.4,21.3-14.2,21.9c3,1,9-7.4,18.8-11.5
			C171.4,839.1,181.7,840.2,183,837.3z"/>
	</g>
	<g>
		<g>
			<path fill="#FFFFFF" d="M166.4,740.4c-0.3,4.6-4.3,8.1-8.9,7.9s-8.1-4.3-7.9-8.9c0.3-4.6,4.3-8.1,8.9-7.9
				C163.2,731.8,166.7,735.8,166.4,740.4z M165.7,740.3c0.3-4.2-3-7.9-7.2-8.2c-4.2-0.3-7.9,3-8.2,7.2s3,7.9,7.2,8.2
				C161.8,747.8,165.5,744.6,165.7,740.3z"/>
			<path fill="#FFFFFF" d="M163.8,736.3c0.3,0.9,0.4,1.8,0.3,2.7c-0.3,4.2-3.9,7.4-8,7.1c-0.2,0-0.5,0-0.7-0.1
				c0.7,0.3,1.4,0.5,2.2,0.5c3.7,0.2,6.9-2.6,7.2-6.3C164.9,738.8,164.5,737.5,163.8,736.3z"/>
			<path fill="#FFFFFF" d="M159.3,734.1c0.3-0.4-1.6-1.7-3.8-0.8c-2.3,0.9-2.8,3-2.3,3.1c0.4,0.2,1.4-1,2.9-1.5
				C157.5,734.3,159,734.5,159.3,734.1z"/>
		</g>
		<g>
			<path fill="#FFFFFF" d="M189.1,726.2c-0.5,3.1-3.4,5.2-6.5,4.7c-3.1-0.5-5.2-3.4-4.7-6.5c0.5-3.1,3.4-5.2,6.5-4.7
				C187.5,720.1,189.6,723,189.1,726.2z M188.7,726.1c0.5-2.8-1.5-5.5-4.3-6c-2.8-0.5-5.5,1.5-6,4.3c-0.5,2.8,1.5,5.5,4.3,6
				C185.5,730.9,188.2,728.9,188.7,726.1z"/>
			<path fill="#FFFFFF" d="M187.6,723.2c0.1,0.6,0.2,1.2,0.1,1.9c-0.4,2.8-3.1,4.7-5.9,4.3c-0.2,0-0.3-0.1-0.5-0.1
				c0.4,0.2,0.9,0.4,1.5,0.5c2.5,0.4,4.9-1.3,5.3-3.8C188.2,725,188,724.1,187.6,723.2z"/>
			<path fill="#FFFFFF" d="M184.7,721.4c0.2-0.3-0.9-1.2-2.5-0.8c-1.6,0.4-2.1,1.9-1.8,2c0.3,0.1,1-0.6,2.1-0.9
				C183.5,721.4,184.5,721.7,184.7,721.4z"/>
		</g>
		<g>
			<path fill="#FFFFFF" d="M174.4,698.8c0,4.2-3.5,7.7-7.7,7.7c-4.2,0-7.7-3.5-7.7-7.7s3.5-7.7,7.7-7.7
				C171,691.1,174.4,694.6,174.4,698.8z M173.8,698.8c0-3.9-3.2-7.1-7-7.1c-3.9,0-7.1,3.2-7.1,7c0,3.9,3.2,7.1,7,7.1
				C170.6,705.9,173.8,702.7,173.8,698.8z"/>
			<path fill="#FFFFFF" d="M171.8,695.2c0.3,0.8,0.5,1.6,0.5,2.5c0,3.8-3.1,7-7,7c-0.2,0-0.4,0-0.6,0c0.6,0.2,1.3,0.4,2.1,0.4
				c3.4,0,6.2-2.8,6.2-6.2C172.9,697.5,172.5,696.2,171.8,695.2z"/>
			<path fill="#FFFFFF" d="M167.5,693.5c0.2-0.4-1.5-1.4-3.5-0.5c-2,0.9-2.4,2.9-2,3c0.4,0.1,1.2-1,2.6-1.6
				C165.9,693.7,167.3,693.9,167.5,693.5z"/>
		</g>
		<g>
			<path fill="#FFFFFF" d="M173.7,681.5c-0.3,4-3.9,7-7.9,6.6c-4-0.3-7-3.9-6.6-7.9c0.3-4,3.9-7,7.9-6.6
				C171.1,674,174.1,677.5,173.7,681.5z M173.1,681.5c0.3-3.7-2.4-6.9-6.1-7.3c-3.7-0.3-6.9,2.4-7.3,6.1c-0.3,3.7,2.4,6.9,6.1,7.3
				C169.5,687.9,172.8,685.2,173.1,681.5z"/>
			<path fill="#FFFFFF" d="M171.5,677.9c0.2,0.8,0.3,1.6,0.2,2.4c-0.3,3.6-3.5,6.3-7.2,6c-0.2,0-0.4,0-0.6-0.1
				c0.6,0.3,1.2,0.4,1.9,0.5c3.2,0.3,6.1-2.1,6.4-5.4C172.4,680.1,172.1,678.9,171.5,677.9z"/>
			<path fill="#FFFFFF" d="M167.6,675.9c0.2-0.3-1.3-1.5-3.3-0.8c-2,0.7-2.5,2.6-2.1,2.7c0.4,0.2,1.3-0.9,2.6-1.3
				C166.1,676,167.4,676.3,167.6,675.9z"/>
		</g>
		<g>
			<path fill="#FFFFFF" d="M199.7,655.7c-0.3,3.2-3.2,5.5-6.4,5.1c-3.2-0.3-5.5-3.2-5.1-6.4c0.3-3.2,3.2-5.5,6.4-5.1
				C197.8,649.7,200.1,652.6,199.7,655.7z M199.3,655.7c0.3-2.9-1.8-5.5-4.7-5.8c-2.9-0.3-5.5,1.8-5.8,4.7c-0.3,2.9,1.8,5.5,4.7,5.8
				S198.9,658.6,199.3,655.7z"/>
			<path fill="#FFFFFF" d="M198.1,652.8c0.2,0.6,0.2,1.2,0.1,1.9c-0.3,2.9-2.9,5-5.8,4.6c-0.2,0-0.3,0-0.5-0.1
				c0.5,0.2,1,0.4,1.5,0.4c2.6,0.3,4.9-1.6,5.1-4.1C198.7,654.6,198.5,653.7,198.1,652.8z"/>
			<path fill="#FFFFFF" d="M195,651.2c0.2-0.3-1-1.2-2.6-0.7c-1.6,0.5-2,2-1.7,2.1c0.3,0.1,1-0.7,2.1-1
				C193.8,651.2,194.8,651.5,195,651.2z"/>
		</g>
		<g>
			<path fill="#FFFFFF" d="M171.8,622.6c-0.4,3.7-3.7,6.4-7.3,6c-3.7-0.4-6.4-3.7-6-7.3c0.4-3.7,3.7-6.4,7.3-6
				C169.5,615.7,172.2,619,171.8,622.6z M171.3,622.6c0.3-3.4-2.1-6.4-5.5-6.7c-3.4-0.3-6.4,2.1-6.7,5.5c-0.3,3.4,2.1,6.4,5.5,6.7
				S170.9,626,171.3,622.6z"/>
			<path fill="#FFFFFF" d="M169.8,619.3c0.2,0.7,0.3,1.4,0.2,2.2c-0.3,3.3-3.3,5.8-6.6,5.4c-0.2,0-0.4,0-0.5-0.1
				c0.5,0.3,1.1,0.4,1.8,0.5c3,0.3,5.6-1.9,5.9-4.9C170.6,621.4,170.4,620.3,169.8,619.3z"/>
			<path fill="#FFFFFF" d="M166.3,617.4c0.2-0.3-1.2-1.4-3-0.8c-1.8,0.6-2.3,2.3-1.9,2.4c0.3,0.2,1.2-0.8,2.4-1.2
				C164.9,617.5,166.1,617.8,166.3,617.4z"/>
		</g>
		<g>
			<path fill="#FFFFFF" d="M184,595.6c-0.1,3-2.6,5.4-5.6,5.3c-3-0.1-5.4-2.6-5.3-5.6c0.1-3,2.6-5.4,5.6-5.3
				C181.7,590.1,184.1,592.6,184,595.6z M183.6,595.6c0.1-2.8-2.1-5.1-4.9-5.1c-2.8-0.1-5.1,2.1-5.1,4.9s2.1,5.1,4.9,5.1
				C181.2,600.6,183.5,598.4,183.6,595.6z"/>
			<path fill="#FFFFFF" d="M182.2,593c0.2,0.6,0.3,1.2,0.3,1.8c-0.1,2.7-2.3,4.9-5.1,4.8c-0.1,0-0.3,0-0.4,0
				c0.5,0.2,0.9,0.3,1.5,0.3c2.4,0.1,4.5-1.9,4.5-4.3C183,594.7,182.7,593.8,182.2,593z"/>
			<path fill="#FFFFFF" d="M179.2,591.7c0.2-0.3-1.1-1.1-2.5-0.4c-1.5,0.6-1.8,2-1.4,2.1c0.3,0.1,0.9-0.7,1.9-1.1
				C178,591.9,179,592,179.2,591.7z"/>
		</g>
		<g>
			<path fill="#FFFFFF" d="M171.9,573.6c-0.2,3.5-3.2,6.1-6.6,5.9s-6.1-3.2-5.9-6.6c0.2-3.5,3.2-6.1,6.6-5.9
				C169.4,567.1,172.1,570.1,171.9,573.6z M171.3,573.5c0.2-3.2-2.2-5.9-5.4-6.1c-3.2-0.2-5.9,2.2-6.1,5.4c-0.2,3.2,2.2,5.9,5.4,6.1
				C168.4,579.1,171.1,576.7,171.3,573.5z"/>
			<path fill="#FFFFFF" d="M169.9,570.5c0.2,0.6,0.3,1.3,0.3,2.1c-0.2,3.1-2.9,5.5-6,5.3c-0.2,0-0.3,0-0.5-0.1
				c0.5,0.2,1.1,0.4,1.7,0.4c2.8,0.2,5.2-2,5.3-4.8C170.7,572.4,170.4,571.4,169.9,570.5z"/>
			<path fill="#FFFFFF" d="M166.5,568.9c0.2-0.3-1.2-1.3-2.9-0.6c-1.7,0.6-2.1,2.3-1.7,2.4c0.3,0.1,1.1-0.8,2.2-1.2
				C165.2,569,166.3,569.2,166.5,568.9z"/>
		</g>
		<g>
			<path fill="#FFFFFF" d="M167.4,550.9c-0.4,3.8-3.8,6.7-7.6,6.3c-3.8-0.4-6.7-3.8-6.3-7.6c0.4-3.8,3.8-6.7,7.6-6.3
				S167.7,547.1,167.4,550.9z M166.8,550.9c0.3-3.5-2.3-6.7-5.8-7c-3.5-0.3-6.7,2.3-7,5.8c-0.3,3.5,2.3,6.7,5.8,7
				C163.3,557,166.5,554.4,166.8,550.9z"/>
			<path fill="#FFFFFF" d="M165.3,547.4c0.2,0.7,0.3,1.5,0.2,2.3c-0.3,3.5-3.4,6-6.9,5.7c-0.2,0-0.4,0-0.6-0.1
				c0.6,0.3,1.2,0.4,1.8,0.5c3.1,0.3,5.9-2,6.1-5.1C166.1,549.6,165.8,548.4,165.3,547.4z"/>
			<path fill="#FFFFFF" d="M161.5,545.5c0.2-0.3-1.3-1.4-3.2-0.8c-1.9,0.7-2.4,2.5-2,2.6c0.4,0.2,1.2-0.8,2.5-1.2
				C160.1,545.6,161.3,545.8,161.5,545.5z"/>
		</g>
		<g>
			<path fill="#FFFFFF" d="M180.6,517c-0.4,5.1-4.8,8.9-9.9,8.4c-5.1-0.4-8.9-4.8-8.4-9.9c0.4-5.1,4.8-8.9,9.9-8.4
				C177.3,507.5,181,512,180.6,517z M179.9,517c0.4-4.6-3.1-8.7-7.7-9.1c-4.6-0.4-8.7,3.1-9.1,7.7c-0.4,4.6,3.1,8.7,7.7,9.1
				C175.4,525.1,179.5,521.6,179.9,517z"/>
			<path fill="#FFFFFF" d="M177.8,512.5c0.3,1,0.4,2,0.3,3c-0.4,4.6-4.4,8-9,7.6c-0.2,0-0.5-0.1-0.7-0.1c0.7,0.3,1.6,0.6,2.4,0.6
				c4.1,0.3,7.7-2.7,8-6.8C179,515.3,178.6,513.8,177.8,512.5z"/>
			<path fill="#FFFFFF" d="M172.9,510c0.3-0.4-1.7-1.9-4.2-1c-2.5,0.9-3.1,3.3-2.6,3.4c0.5,0.2,1.6-1.1,3.2-1.6
				C171,510.2,172.6,510.5,172.9,510z"/>
		</g>
		<g>
			<path fill="#FFFFFF" d="M158.1,489.9c-0.5,4.9-5,8.5-9.9,8c-4.9-0.5-8.5-5-8-9.9c0.5-4.9,5-8.5,9.9-8
				C155.1,480.5,158.7,485,158.1,489.9z M157.4,489.8c0.5-4.5-2.8-8.6-7.3-9.1s-8.6,2.8-9.1,7.3c-0.5,4.5,2.8,8.6,7.3,9.1
				C152.8,497.6,156.9,494.3,157.4,489.8z"/>
			<path fill="#FFFFFF" d="M155.5,485.4c0.2,0.9,0.3,1.9,0.2,3c-0.5,4.5-4.5,7.7-9,7.2c-0.2,0-0.5-0.1-0.7-0.1
				c0.7,0.3,1.5,0.6,2.3,0.7c4,0.4,7.6-2.4,8-6.4C156.6,488.2,156.2,486.7,155.5,485.4z"/>
			<path fill="#FFFFFF" d="M150.8,482.8c0.3-0.4-1.6-1.9-4.1-1.1c-2.5,0.8-3.1,3.1-2.6,3.3c0.5,0.2,1.6-1,3.2-1.5
				C148.9,482.9,150.5,483.3,150.8,482.8z"/>
		</g>
		<g>
			<path fill="#FFFFFF" d="M156.6,463c-0.3,3.1-3.1,5.4-6.2,5c-3.1-0.3-5.4-3.1-5-6.2c0.3-3.1,3.1-5.4,6.2-5
				C154.6,457.1,156.9,459.9,156.6,463z M156.1,463c0.3-2.8-1.8-5.4-4.6-5.7s-5.4,1.8-5.7,4.6s1.8,5.4,4.6,5.7
				S155.8,465.8,156.1,463z"/>
			<path fill="#FFFFFF" d="M154.9,460.2c0.2,0.6,0.2,1.2,0.2,1.8c-0.3,2.8-2.8,4.8-5.6,4.6c-0.2,0-0.3,0-0.4-0.1
				c0.5,0.2,0.9,0.4,1.5,0.4c2.5,0.3,4.7-1.6,5-4.1C155.6,461.9,155.4,461,154.9,460.2z"/>
			<path fill="#FFFFFF" d="M151.9,458.6c0.2-0.3-1-1.2-2.5-0.7c-1.5,0.5-2,2-1.6,2c0.3,0.1,1-0.7,2-1
				C150.7,458.7,151.8,458.9,151.9,458.6z"/>
		</g>
		<g>
			<path fill="#FFFFFF" d="M198.8,429.6c-0.3,4.8-4.4,8.5-9.2,8.2s-8.5-4.4-8.2-9.2c0.3-4.8,4.4-8.5,9.2-8.2
				S199.1,424.8,198.8,429.6z M198.1,429.6c0.3-4.4-3.1-8.2-7.5-8.5c-4.4-0.3-8.2,3.1-8.5,7.5c-0.3,4.4,3.1,8.2,7.5,8.5
				C194,437.3,197.8,434,198.1,429.6z"/>
			<path fill="#FFFFFF" d="M196.1,425.4c0.3,0.9,0.4,1.9,0.4,2.8c-0.3,4.4-4,7.7-8.4,7.4c-0.2,0-0.5,0-0.7-0.1
				c0.7,0.3,1.5,0.5,2.3,0.5c3.9,0.2,7.2-2.7,7.4-6.6C197.2,428,196.8,426.6,196.1,425.4z"/>
			<path fill="#FFFFFF" d="M191.3,423.1c0.3-0.4-1.6-1.7-4-0.9c-2.3,0.9-2.9,3.1-2.4,3.3c0.5,0.2,1.5-1.1,3-1.6
				C189.5,423.3,191.1,423.5,191.3,423.1z"/>
		</g>
		<g>
			<path fill="#FFFFFF" d="M175.5,395.7c-0.5,3.5-3.8,5.8-7.3,5.3c-3.5-0.5-5.8-3.8-5.3-7.3c0.5-3.5,3.8-5.8,7.3-5.3
				C173.7,389,176.1,392.2,175.5,395.7z M175,395.6c0.5-3.2-1.7-6.2-4.9-6.7c-3.2-0.5-6.2,1.7-6.7,4.9c-0.5,3.2,1.7,6.2,4.9,6.7
				C171.5,401,174.5,398.8,175,395.6z"/>
			<path fill="#FFFFFF" d="M173.8,392.4c0.1,0.7,0.2,1.4,0.1,2.1c-0.5,3.1-3.4,5.3-6.6,4.8c-0.2,0-0.3-0.1-0.5-0.1
				c0.5,0.3,1,0.5,1.6,0.6c2.8,0.4,5.4-1.5,5.8-4.3C174.5,394.4,174.3,393.3,173.8,392.4z"/>
			<path fill="#FFFFFF" d="M170.5,390.5c0.2-0.3-1.1-1.4-2.8-0.9c-1.8,0.5-2.3,2.1-2,2.2c0.3,0.2,1.1-0.7,2.3-1
				C169.2,390.5,170.3,390.8,170.5,390.5z"/>
		</g>
		<g>
			<path fill="#FFFFFF" d="M181.8,372.4c-0.6,4.2-4.5,7.2-8.8,6.6c-4.2-0.6-7.2-4.5-6.6-8.8c0.6-4.2,4.5-7.2,8.8-6.6
				C179.4,364.2,182.4,368.1,181.8,372.4z M181.1,372.3c0.5-3.9-2.2-7.5-6.1-8s-7.5,2.2-8,6.1c-0.5,3.9,2.2,7.5,6.1,8
				C177,378.9,180.6,376.2,181.1,372.3z"/>
			<path fill="#FFFFFF" d="M179.6,368.4c0.2,0.8,0.2,1.7,0.1,2.6c-0.5,3.8-4.1,6.5-7.9,6c-0.2,0-0.4-0.1-0.6-0.1
				c0.6,0.3,1.3,0.5,2,0.6c3.4,0.5,6.6-1.9,7.1-5.3C180.5,370.8,180.2,369.5,179.6,368.4z"/>
			<path fill="#FFFFFF" d="M175.6,366.1c0.3-0.3-1.3-1.7-3.5-1c-2.1,0.6-2.8,2.6-2.4,2.7c0.4,0.2,1.4-0.9,2.8-1.2
				C174,366.1,175.4,366.5,175.6,366.1z"/>
		</g>
		<g>
			<path fill="#FFFFFF" d="M192.9,343.9c-0.2,4.8-4.4,8.6-9.2,8.3c-4.8-0.2-8.6-4.4-8.3-9.2s4.4-8.6,9.2-8.3
				C189.4,334.9,193.1,339,192.9,343.9z M192.1,343.8c0.2-4.4-3.2-8.2-7.7-8.5c-4.4-0.2-8.2,3.2-8.5,7.7c-0.2,4.4,3.2,8.2,7.7,8.5
				C188.1,351.7,191.9,348.3,192.1,343.8z"/>
			<path fill="#FFFFFF" d="M190.1,339.6c0.3,0.9,0.4,1.9,0.4,2.9c-0.2,4.4-4,7.8-8.3,7.6c-0.2,0-0.5,0-0.7-0.1
				c0.7,0.3,1.5,0.5,2.3,0.5c3.9,0.2,7.2-2.8,7.4-6.7C191.2,342.3,190.8,340.8,190.1,339.6z"/>
			<path fill="#FFFFFF" d="M185.3,337.4c0.3-0.4-1.7-1.7-4-0.8c-2.4,0.9-2.9,3.2-2.4,3.3c0.5,0.2,1.5-1.1,3-1.7
				C183.4,337.6,185.1,337.8,185.3,337.4z"/>
		</g>
		<g>
			<path fill="#FFFFFF" d="M175.3,313.1c0,3.4-2.8,6.2-6.2,6.2c-3.4,0-6.2-2.8-6.2-6.2c0-3.4,2.8-6.2,6.2-6.2
				S175.3,309.7,175.3,313.1z M174.8,313.1c0-3.2-2.6-5.7-5.7-5.7c-3.2,0-5.7,2.6-5.7,5.7s2.6,5.7,5.7,5.7
				C172.2,318.9,174.8,316.3,174.8,313.1z"/>
			<path fill="#FFFFFF" d="M173.2,310.2c0.2,0.6,0.4,1.3,0.4,2c0,3.1-2.5,5.6-5.6,5.6c-0.2,0-0.3,0-0.5,0c0.5,0.2,1.1,0.3,1.7,0.3
				c2.8,0,5-2.2,5-5C174.1,312.1,173.8,311.1,173.2,310.2z"/>
			<path fill="#FFFFFF" d="M169.7,308.8c0.2-0.3-1.2-1.2-2.9-0.4c-1.6,0.7-1.9,2.4-1.6,2.4c0.3,0.1,1-0.8,2.1-1.3
				C168.4,309,169.6,309.1,169.7,308.8z"/>
		</g>
		<g>
			<path fill="#FFFFFF" d="M155.1,281c-0.3,4-3.9,7-7.8,6.6s-7-3.9-6.6-7.8c0.3-4,3.9-7,7.8-6.6C152.5,273.5,155.5,277.1,155.1,281z
				 M154.5,281c0.3-3.7-2.4-6.9-6.1-7.2c-3.7-0.3-6.9,2.4-7.2,6.1c-0.3,3.7,2.4,6.9,6.1,7.2C151,287.4,154.2,284.6,154.5,281z"/>
			<path fill="#FFFFFF" d="M153,277.5c0.2,0.8,0.3,1.6,0.2,2.4c-0.3,3.6-3.5,6.3-7.1,6c-0.2,0-0.4,0-0.6-0.1
				c0.6,0.3,1.2,0.4,1.9,0.5c3.2,0.3,6-2.1,6.3-5.3C153.8,279.7,153.5,278.5,153,277.5z"/>
			<path fill="#FFFFFF" d="M149.1,275.5c0.2-0.3-1.3-1.5-3.3-0.8c-2,0.7-2.5,2.6-2.1,2.7c0.4,0.2,1.2-0.9,2.6-1.3
				C147.5,275.6,148.9,275.8,149.1,275.5z"/>
		</g>
		<g>
			<path fill="#FFFFFF" d="M176.1,235.2c0,5.1-4.2,9.2-9.3,9.2s-9.2-4.2-9.2-9.3c0-5.1,4.2-9.2,9.3-9.2
				C172,225.9,176.1,230.1,176.1,235.2z M175.3,235.2c0-4.7-3.7-8.5-8.4-8.5c-4.7,0-8.5,3.7-8.5,8.4c0,4.7,3.7,8.5,8.4,8.5
				C171.5,243.6,175.3,239.8,175.3,235.2z"/>
			<path fill="#FFFFFF" d="M173,230.9c0.4,0.9,0.5,1.9,0.5,3c0,4.6-3.8,8.3-8.4,8.3c-0.3,0-0.5,0-0.7,0c0.8,0.3,1.6,0.4,2.5,0.4
				c4.1,0,7.4-3.3,7.5-7.4C174.3,233.6,173.8,232.1,173,230.9z"/>
			<path fill="#FFFFFF" d="M167.8,228.7c0.3-0.5-1.8-1.7-4.2-0.7c-2.4,1.1-2.9,3.5-2.4,3.6c0.5,0.2,1.5-1.2,3.1-1.9
				C165.9,229,167.6,229.2,167.8,228.7z"/>
		</g>
		<g>
			<path fill="#FFFFFF" d="M171.2,208.5c-0.2,3.2-3,5.7-6.2,5.5s-5.7-3-5.5-6.2s3-5.7,6.2-5.5C169,202.5,171.4,205.3,171.2,208.5z
				 M170.7,208.5c0.2-3-2-5.5-5-5.7c-3-0.2-5.5,2-5.7,5c-0.2,3,2,5.5,5,5.7C167.9,213.7,170.5,211.5,170.7,208.5z"/>
			<path fill="#FFFFFF" d="M169.4,205.7c0.2,0.6,0.3,1.2,0.2,1.9c-0.2,2.9-2.7,5.1-5.6,4.9c-0.2,0-0.3,0-0.5-0.1
				c0.5,0.2,1,0.3,1.5,0.4c2.6,0.2,4.8-1.8,5-4.4C170.1,207.5,169.9,206.5,169.4,205.7z"/>
			<path fill="#FFFFFF" d="M166.2,204.1c0.2-0.3-1.1-1.2-2.7-0.6c-1.6,0.6-2,2.1-1.6,2.2c0.3,0.1,1-0.7,2-1.1
				C165,204.2,166,204.4,166.2,204.1z"/>
		</g>
		<g>
			<path fill="#FFFFFF" d="M151.9,176.1c-0.6,3.6-4,6.2-7.6,5.6s-6.2-4-5.6-7.6c0.6-3.6,4-6.2,7.6-5.6
				C149.9,169,152.5,172.4,151.9,176.1z M151.3,176c0.5-3.3-1.8-6.5-5.1-7c-3.3-0.5-6.5,1.8-7,5.1c-0.5,3.3,1.8,6.5,5.1,7
				C147.7,181.6,150.8,179.3,151.3,176z"/>
			<path fill="#FFFFFF" d="M150.1,172.7c0.2,0.7,0.2,1.4,0.1,2.2c-0.5,3.3-3.6,5.6-6.9,5.1c-0.2,0-0.4-0.1-0.5-0.1
				c0.5,0.3,1.1,0.5,1.7,0.6c2.9,0.5,5.7-1.6,6.1-4.5C150.8,174.7,150.6,173.6,150.1,172.7z"/>
			<path fill="#FFFFFF" d="M146.6,170.6c0.2-0.3-1.1-1.4-3-0.9c-1.9,0.5-2.4,2.2-2.1,2.3c0.3,0.2,1.2-0.7,2.4-1
				C145.2,170.6,146.4,170.9,146.6,170.6z"/>
		</g>
		<g>
			<path fill="#FFFFFF" d="M160.5,137.7c-0.4,4.4-4.3,7.8-8.7,7.4c-4.4-0.4-7.8-4.3-7.4-8.7c0.4-4.4,4.3-7.8,8.7-7.4
				C157.6,129.4,160.9,133.3,160.5,137.7z M159.9,137.7c0.3-4.1-2.7-7.7-6.8-8s-7.7,2.7-8,6.8s2.7,7.7,6.8,8
				S159.5,141.8,159.9,137.7z"/>
			<path fill="#FFFFFF" d="M158.1,133.8c0.2,0.8,0.4,1.7,0.3,2.6c-0.3,4-3.8,7-7.9,6.7c-0.2,0-0.4,0-0.6-0.1
				c0.7,0.3,1.4,0.5,2.1,0.5c3.6,0.3,6.7-2.4,7-6C159.1,136.2,158.7,134.9,158.1,133.8z"/>
			<path fill="#FFFFFF" d="M153.7,131.6c0.3-0.4-1.5-1.6-3.7-0.9c-2.2,0.8-2.7,2.9-2.3,3c0.4,0.2,1.4-1,2.8-1.4
				C152,131.7,153.5,132,153.7,131.6z"/>
		</g>
		<g>
			<path fill="#FFFFFF" d="M155.5,97.9c0,3.1-2.6,5.7-5.7,5.7c-3.1,0-5.7-2.6-5.7-5.7c0-3.1,2.6-5.7,5.7-5.7S155.5,94.8,155.5,97.9z
				 M155,97.9c0-2.9-2.3-5.2-5.2-5.2s-5.2,2.3-5.2,5.2c0,2.9,2.3,5.2,5.2,5.2S155,100.8,155,97.9z"/>
			<path fill="#FFFFFF" d="M153.6,95.2c0.2,0.6,0.3,1.2,0.3,1.8c0,2.8-2.3,5.1-5.2,5.1c-0.2,0-0.3,0-0.5,0c0.5,0.2,1,0.3,1.5,0.3
				c2.5,0,4.6-2,4.6-4.6C154.4,96.9,154.1,96,153.6,95.2z"/>
			<path fill="#FFFFFF" d="M150.4,93.9c0.2-0.3-1.1-1.1-2.6-0.4c-1.5,0.7-1.8,2.2-1.4,2.2c0.3,0.1,0.9-0.8,1.9-1.2
				C149.2,94.1,150.3,94.2,150.4,93.9z"/>
		</g>
		<g>
			<path fill="#FFFFFF" d="M142.3,68.9c-0.5,3.4-3.7,5.7-7.1,5.2c-3.4-0.5-5.7-3.7-5.2-7.1c0.5-3.4,3.7-5.7,7.1-5.2
				C140.5,62.3,142.8,65.5,142.3,68.9z M141.8,68.8c0.5-3.1-1.7-6.1-4.8-6.5c-3.1-0.5-6.1,1.7-6.5,4.8c-0.5,3.1,1.7,6.1,4.8,6.5
				C138.4,74.1,141.3,71.9,141.8,68.8z"/>
			<path fill="#FFFFFF" d="M140.6,65.7c0.1,0.7,0.2,1.4,0.1,2.1c-0.5,3.1-3.4,5.2-6.4,4.7c-0.2,0-0.3-0.1-0.5-0.1
				c0.5,0.3,1,0.5,1.6,0.5c2.7,0.4,5.3-1.5,5.7-4.2C141.3,67.6,141.1,66.6,140.6,65.7z"/>
			<path fill="#FFFFFF" d="M137.4,63.8c0.2-0.3-1-1.3-2.8-0.9c-1.7,0.5-2.3,2.1-1.9,2.2c0.3,0.2,1.1-0.7,2.3-1
				C136.1,63.8,137.2,64.1,137.4,63.8z"/>
		</g>
	</g>
	<g>
		<g>
			<path fill="#FFFFFF" d="M166.9,667.6c-0.4,3.4-3.5,5.7-6.9,5.3c-3.4-0.4-5.7-3.5-5.3-6.9c0.4-3.4,3.5-5.7,6.9-5.3
				C164.9,661.1,167.3,664.2,166.9,667.6z M166.4,667.5c0.4-3.1-1.8-5.9-4.8-6.3c-3.1-0.4-5.9,1.8-6.3,4.8c-0.4,3.1,1.8,5.9,4.8,6.3
				C163.1,672.8,165.9,670.6,166.4,667.5z"/>
			<path fill="#FFFFFF" d="M165.1,664.5c0.2,0.6,0.2,1.3,0.1,2c-0.4,3-3.2,5.2-6.2,4.8c-0.2,0-0.3-0.1-0.5-0.1
				c0.5,0.2,1,0.4,1.6,0.5c2.7,0.4,5.2-1.5,5.6-4.3C165.8,666.4,165.6,665.4,165.1,664.5z"/>
			<path fill="#FFFFFF" d="M161.9,662.6c0.2-0.3-1.1-1.3-2.7-0.8c-1.7,0.5-2.2,2.1-1.9,2.2c0.3,0.2,1.1-0.7,2.2-1
				C160.7,662.7,161.8,662.9,161.9,662.6z"/>
		</g>
		<g>
			<path fill="#FFFFFF" d="M172.4,633c-0.6,3.4-3.8,5.6-7.2,5.1c-3.4-0.6-5.6-3.8-5.1-7.2s3.8-5.6,7.2-5.1
				C170.7,626.3,173,629.6,172.4,633z M171.9,632.9c0.5-3.1-1.5-6.1-4.6-6.6s-6.1,1.5-6.6,4.6c-0.5,3.1,1.5,6.1,4.6,6.6
				S171.4,636,171.9,632.9z"/>
			<path fill="#FFFFFF" d="M170.8,629.7c0.1,0.7,0.1,1.3,0,2c-0.5,3.1-3.5,5.1-6.5,4.6c-0.2,0-0.3-0.1-0.5-0.1
				c0.5,0.3,1,0.5,1.6,0.6c2.7,0.5,5.3-1.3,5.8-4.1C171.4,631.7,171.2,630.6,170.8,629.7z"/>
			<path fill="#FFFFFF" d="M167.6,627.7c0.2-0.3-1-1.4-2.7-0.9c-1.7,0.4-2.3,2-2,2.1c0.3,0.2,1.1-0.6,2.3-0.9
				C166.3,627.7,167.4,628,167.6,627.7z"/>
		</g>
		<g>
			<path fill="#FFFFFF" d="M205.2,602.4c-0.4,4.5-4.4,7.8-8.9,7.5c-4.5-0.4-7.8-4.4-7.5-8.9s4.4-7.8,8.9-7.5
				S205.6,597.9,205.2,602.4z M204.5,602.4c0.4-4.1-2.7-7.8-6.8-8.1c-4.1-0.4-7.8,2.7-8.1,6.8c-0.4,4.1,2.7,7.8,6.8,8.1
				C200.5,609.6,204.2,606.5,204.5,602.4z"/>
			<path fill="#FFFFFF" d="M202.7,598.4c0.2,0.8,0.3,1.8,0.3,2.7c-0.3,4.1-3.9,7.1-8,6.8c-0.2,0-0.4-0.1-0.7-0.1
				c0.7,0.3,1.4,0.5,2.1,0.6c3.6,0.3,6.8-2.4,7.1-6C203.7,600.9,203.4,599.6,202.7,598.4z"/>
			<path fill="#FFFFFF" d="M198.3,596.2c0.3-0.4-1.5-1.7-3.7-0.9c-2.2,0.8-2.8,2.9-2.3,3c0.4,0.2,1.4-1,2.9-1.4
				C196.6,596.3,198.1,596.6,198.3,596.2z"/>
		</g>
		<g>
			<path fill="#FFFFFF" d="M196,577.1c-0.1,4-3.4,7.2-7.4,7.1s-7.2-3.4-7.1-7.4c0.1-4,3.4-7.2,7.4-7.1
				C193,569.8,196.1,573.1,196,577.1z M195.4,577.1c0.1-3.7-2.8-6.7-6.5-6.8c-3.7-0.1-6.7,2.8-6.8,6.5c-0.1,3.7,2.8,6.7,6.5,6.8
				C192.3,583.7,195.3,580.8,195.4,577.1z"/>
			<path fill="#FFFFFF" d="M193.6,573.7c0.3,0.7,0.4,1.5,0.4,2.4c-0.1,3.6-3.1,6.5-6.7,6.4c-0.2,0-0.4,0-0.6,0
				c0.6,0.2,1.2,0.4,1.9,0.4c3.2,0.1,5.9-2.5,6-5.7C194.7,575.8,194.3,574.7,193.6,573.7z"/>
			<path fill="#FFFFFF" d="M189.6,571.9c0.2-0.4-1.4-1.4-3.3-0.6c-1.9,0.8-2.3,2.7-1.9,2.8c0.4,0.1,1.2-0.9,2.5-1.4
				C188.1,572.1,189.5,572.3,189.6,571.9z"/>
		</g>
		<g>
			<path fill="#FFFFFF" d="M203,538.4c0,4.1-3.4,7.5-7.6,7.5s-7.5-3.4-7.5-7.6c0-4.1,3.4-7.5,7.6-7.5S203,534.3,203,538.4z
				 M202.4,538.4c0-3.8-3-6.9-6.8-6.9c-3.8,0-6.9,3-6.9,6.8c0,3.8,3,6.9,6.8,6.9C199.2,545.3,202.3,542.2,202.4,538.4z"/>
			<path fill="#FFFFFF" d="M200.4,534.9c0.3,0.8,0.4,1.6,0.4,2.4c0,3.8-3.1,6.8-6.8,6.8c-0.2,0-0.4,0-0.6,0c0.6,0.2,1.3,0.4,2,0.4
				c3.3,0,6.1-2.7,6.1-6C201.5,537.1,201.1,535.9,200.4,534.9z"/>
			<path fill="#FFFFFF" d="M196.3,533.2c0.2-0.4-1.5-1.4-3.5-0.6c-2,0.9-2.4,2.8-1.9,2.9c0.4,0.1,1.2-1,2.5-1.5
				C194.7,533.4,196.1,533.6,196.3,533.2z"/>
		</g>
		<g>
			<path fill="#FFFFFF" d="M191.6,512.7c-0.5,3.3-3.5,5.6-6.8,5.1c-3.3-0.5-5.6-3.5-5.1-6.8c0.5-3.3,3.5-5.6,6.8-5.1
				C189.8,506.4,192.1,509.4,191.6,512.7z M191.1,512.6c0.4-3-1.7-5.8-4.7-6.3s-5.8,1.7-6.3,4.7c-0.4,3,1.7,5.8,4.7,6.3
				C187.9,517.8,190.7,515.7,191.1,512.6z"/>
			<path fill="#FFFFFF" d="M190,509.6c0.1,0.6,0.2,1.3,0.1,2c-0.4,3-3.2,5.1-6.2,4.6c-0.2,0-0.3-0.1-0.5-0.1c0.5,0.2,1,0.4,1.6,0.5
				c2.7,0.4,5.1-1.5,5.5-4.1C190.6,511.5,190.4,510.5,190,509.6z"/>
			<path fill="#FFFFFF" d="M186.8,507.8c0.2-0.3-1-1.3-2.7-0.8c-1.7,0.5-2.2,2-1.8,2.1c0.3,0.2,1.1-0.7,2.2-0.9
				C185.6,507.8,186.6,508.1,186.8,507.8z"/>
		</g>
		<g>
			<path fill="#FFFFFF" d="M188.6,477.4c-0.1,3.8-3.3,6.9-7.1,6.8c-3.8-0.1-6.9-3.3-6.8-7.1s3.3-6.9,7.1-6.8
				C185.7,470.4,188.7,473.6,188.6,477.4z M188,477.4c0.1-3.5-2.7-6.4-6.2-6.5s-6.4,2.7-6.5,6.2c-0.1,3.5,2.7,6.4,6.2,6.5
				S187.9,480.9,188,477.4z"/>
			<path fill="#FFFFFF" d="M186.3,474.1c0.3,0.7,0.4,1.5,0.4,2.3c-0.1,3.5-3,6.2-6.4,6.1c-0.2,0-0.4,0-0.6,0
				c0.6,0.2,1.2,0.4,1.8,0.4c3.1,0.1,5.7-2.4,5.7-5.5C187.3,476.2,186.9,475,186.3,474.1z"/>
			<path fill="#FFFFFF" d="M182.5,472.4c0.2-0.3-1.3-1.3-3.2-0.6c-1.8,0.8-2.2,2.6-1.8,2.7c0.4,0.1,1.1-0.9,2.4-1.4
				C181,472.6,182.3,472.8,182.5,472.4z"/>
		</g>
		<g>
			<path fill="#FFFFFF" d="M216.2,441.6c-0.4,4-4,7-8,6.6c-4-0.4-7-4-6.6-8c0.4-4,4-7,8-6.6C213.6,433.9,216.6,437.5,216.2,441.6z
				 M215.6,441.5c0.4-3.7-2.4-7-6.1-7.3c-3.7-0.4-7,2.4-7.3,6.1c-0.4,3.7,2.4,7,6.1,7.3S215.2,445.2,215.6,441.5z"/>
			<path fill="#FFFFFF" d="M214,437.9c0.2,0.8,0.3,1.6,0.2,2.4c-0.3,3.7-3.6,6.3-7.2,6c-0.2,0-0.4-0.1-0.6-0.1
				c0.6,0.3,1.2,0.5,1.9,0.5c3.3,0.3,6.1-2.1,6.5-5.3C214.9,440.2,214.6,439,214,437.9z"/>
			<path fill="#FFFFFF" d="M210.1,435.9c0.3-0.3-1.3-1.5-3.3-0.8c-2,0.7-2.5,2.6-2.1,2.7c0.4,0.2,1.3-0.9,2.6-1.3
				C208.6,436,209.9,436.2,210.1,435.9z"/>
		</g>
		<g>
			<path fill="#FFFFFF" d="M182.3,410.6c-0.4,4.6-4.4,8-8.9,7.6c-4.6-0.4-8-4.4-7.6-8.9c0.4-4.6,4.4-8,8.9-7.6
				C179.3,402.1,182.7,406.1,182.3,410.6z M181.6,410.6c0.3-4.2-2.8-7.8-7-8.2c-4.2-0.3-7.8,2.8-8.2,7c-0.3,4.2,2.8,7.8,7,8.2
				S181.3,414.8,181.6,410.6z"/>
			<path fill="#FFFFFF" d="M179.8,406.6c0.3,0.9,0.4,1.8,0.3,2.7c-0.3,4.1-4,7.2-8.1,6.9c-0.2,0-0.4-0.1-0.7-0.1
				c0.7,0.3,1.4,0.5,2.2,0.6c3.7,0.3,6.9-2.4,7.2-6.1C180.8,409.1,180.5,407.7,179.8,406.6z"/>
			<path fill="#FFFFFF" d="M175.3,404.3c0.3-0.4-1.5-1.7-3.8-0.9c-2.2,0.8-2.8,2.9-2.4,3.1c0.4,0.2,1.4-1,2.9-1.5
				C173.6,404.4,175.1,404.7,175.3,404.3z"/>
		</g>
		<g>
			<path fill="#FFFFFF" d="M191,376c-0.1,3.5-3.1,6.3-6.7,6.2c-3.5-0.1-6.3-3.1-6.2-6.7c0.1-3.5,3.1-6.3,6.7-6.2
				C188.4,369.5,191.2,372.4,191,376z M190.5,376c0.1-3.2-2.4-6-5.6-6.1s-6,2.4-6.1,5.6c-0.1,3.2,2.4,6,5.6,6.1
				S190.4,379.2,190.5,376z"/>
			<path fill="#FFFFFF" d="M188.9,372.9c0.2,0.7,0.3,1.4,0.3,2.1c-0.1,3.2-2.8,5.7-6,5.6c-0.2,0-0.3,0-0.5,0
				c0.5,0.2,1.1,0.3,1.7,0.4c2.9,0.1,5.3-2.1,5.4-5C189.8,374.8,189.5,373.8,188.9,372.9z"/>
			<path fill="#FFFFFF" d="M185.4,371.3c0.2-0.3-1.2-1.3-2.9-0.6c-1.7,0.7-2.1,2.4-1.7,2.4c0.3,0.1,1.1-0.8,2.2-1.2
				C184.1,371.5,185.3,371.6,185.4,371.3z"/>
		</g>
		<g>
			<path fill="#FFFFFF" d="M213.7,345.9c-0.1,4.1-3.6,7.4-7.7,7.3s-7.4-3.6-7.3-7.7c0.1-4.1,3.6-7.4,7.7-7.3
				C210.5,338.3,213.8,341.7,213.7,345.9z M213,345.8c0.1-3.8-2.9-7-6.7-7.1c-3.8-0.1-7,2.9-7.1,6.7c-0.1,3.8,2.9,7,6.7,7.1
				C209.8,352.7,212.9,349.6,213,345.8z"/>
			<path fill="#FFFFFF" d="M211.2,342.3c0.3,0.8,0.4,1.6,0.4,2.4c-0.1,3.8-3.2,6.7-7,6.6c-0.2,0-0.4,0-0.6,0c0.6,0.2,1.3,0.4,2,0.4
				c3.3,0.1,6.1-2.6,6.2-5.9C212.2,344.5,211.8,343.3,211.2,342.3z"/>
			<path fill="#FFFFFF" d="M207,340.5c0.2-0.4-1.5-1.4-3.4-0.6c-2,0.8-2.4,2.8-2,2.9c0.4,0.1,1.2-1,2.6-1.5
				C205.5,340.7,206.8,340.9,207,340.5z"/>
		</g>
		<g>
			<path fill="#FFFFFF" d="M183.5,320.5c-0.1,4.3-3.8,7.7-8.1,7.6c-4.3-0.1-7.7-3.8-7.6-8.1c0.1-4.3,3.8-7.7,8.1-7.6
				C180.2,312.5,183.6,316.1,183.5,320.5z M182.8,320.4c0.1-4-3-7.3-7-7.4c-4-0.1-7.3,3-7.4,7c-0.1,4,3,7.3,7,7.4
				C179.4,327.5,182.7,324.4,182.8,320.4z"/>
			<path fill="#FFFFFF" d="M180.9,316.7c0.3,0.8,0.4,1.7,0.4,2.6c-0.1,3.9-3.4,7-7.3,6.9c-0.2,0-0.4,0-0.6-0.1
				c0.7,0.3,1.4,0.4,2.1,0.4c3.5,0.1,6.4-2.6,6.5-6.1C182,319.1,181.6,317.8,180.9,316.7z"/>
			<path fill="#FFFFFF" d="M176.5,314.8c0.2-0.4-1.5-1.5-3.6-0.7c-2.1,0.9-2.5,2.9-2.1,3c0.4,0.2,1.3-1,2.7-1.5
				C174.9,315,176.4,315.2,176.5,314.8z"/>
		</g>
		<g>
			<path fill="#FFFFFF" d="M191.7,291.2c-0.2,3.2-3,5.6-6.2,5.3c-3.2-0.2-5.6-3-5.3-6.2c0.2-3.2,3-5.6,6.2-5.3
				C189.6,285.2,192,288,191.7,291.2z M191.2,291.1c0.2-2.9-2-5.5-4.9-5.7c-2.9-0.2-5.5,2-5.7,4.9c-0.2,2.9,2,5.5,4.9,5.7
				S191,294.1,191.2,291.1z"/>
			<path fill="#FFFFFF" d="M189.9,288.3c0.2,0.6,0.3,1.2,0.2,1.9c-0.2,2.9-2.7,5-5.6,4.8c-0.2,0-0.3,0-0.5-0.1
				c0.5,0.2,1,0.3,1.5,0.4c2.6,0.2,4.8-1.7,5-4.3C190.7,290.1,190.4,289.1,189.9,288.3z"/>
			<path fill="#FFFFFF" d="M186.8,286.8c0.2-0.3-1.1-1.2-2.6-0.6c-1.6,0.6-2,2.1-1.6,2.1c0.3,0.1,1-0.7,2-1
				C185.6,286.9,186.7,287.1,186.8,286.8z"/>
		</g>
		<g>
			<path fill="#FFFFFF" d="M202.6,262.9c-0.4,3.1-3.2,5.2-6.3,4.8c-3.1-0.4-5.2-3.2-4.8-6.3s3.2-5.2,6.3-4.8
				C200.8,257,203,259.9,202.6,262.9z M202.1,262.9c0.4-2.8-1.6-5.4-4.4-5.8s-5.4,1.6-5.8,4.4c-0.4,2.8,1.6,5.4,4.4,5.8
				C199.1,267.7,201.7,265.7,202.1,262.9z"/>
			<path fill="#FFFFFF" d="M201,260.1c0.1,0.6,0.2,1.2,0.1,1.8c-0.4,2.8-2.9,4.7-5.7,4.4c-0.2,0-0.3,0-0.4-0.1
				c0.4,0.2,0.9,0.4,1.5,0.5c2.5,0.3,4.8-1.4,5.1-3.9C201.6,261.8,201.4,260.9,201,260.1z"/>
			<path fill="#FFFFFF" d="M198.1,258.4c0.2-0.3-1-1.2-2.5-0.7c-1.5,0.5-2,1.9-1.7,2c0.3,0.1,1-0.6,2-0.9
				C196.9,258.4,197.9,258.7,198.1,258.4z"/>
		</g>
		<g>
			<path fill="#FFFFFF" d="M177.6,238c-0.4,4-4,6.9-8,6.5s-6.9-4-6.5-8c0.4-4,4-6.9,8-6.5S178,234,177.6,238z M177,237.9
				c0.4-3.7-2.3-6.9-6-7.3c-3.7-0.4-6.9,2.3-7.3,6c-0.4,3.7,2.3,6.9,6,7.3C173.3,244.2,176.6,241.6,177,237.9z"/>
			<path fill="#FFFFFF" d="M175.4,234.3c0.2,0.8,0.3,1.6,0.2,2.4c-0.4,3.6-3.6,6.3-7.2,5.9c-0.2,0-0.4-0.1-0.6-0.1
				c0.6,0.3,1.2,0.5,1.9,0.5c3.2,0.3,6.1-2,6.4-5.2C176.3,236.6,176,235.4,175.4,234.3z"/>
			<path fill="#FFFFFF" d="M171.6,232.3c0.3-0.3-1.3-1.5-3.3-0.8c-2,0.7-2.5,2.5-2.1,2.6c0.4,0.2,1.3-0.8,2.6-1.2
				C170,232.4,171.4,232.6,171.6,232.3z"/>
		</g>
		<g>
			<path fill="#FFFFFF" d="M188.3,215.6c-0.4,3.1-3.2,5.3-6.4,5c-3.1-0.4-5.3-3.2-5-6.4s3.2-5.3,6.4-5S188.7,212.4,188.3,215.6z
				 M187.9,215.5c0.4-2.9-1.7-5.5-4.5-5.8c-2.9-0.4-5.5,1.7-5.8,4.5c-0.4,2.9,1.7,5.5,4.5,5.8C184.9,220.4,187.5,218.4,187.9,215.5z
				"/>
			<path fill="#FFFFFF" d="M186.7,212.7c0.1,0.6,0.2,1.2,0.1,1.9c-0.3,2.8-2.9,4.8-5.8,4.5c-0.2,0-0.3,0-0.5-0.1
				c0.5,0.2,0.9,0.4,1.5,0.4c2.5,0.3,4.8-1.5,5.1-4C187.3,214.5,187.1,213.5,186.7,212.7z"/>
			<path fill="#FFFFFF" d="M183.7,211c0.2-0.3-1-1.2-2.6-0.7c-1.6,0.5-2,1.9-1.7,2c0.3,0.1,1-0.6,2-0.9
				C182.5,211.1,183.6,211.3,183.7,211z"/>
		</g>
		<g>
			<path fill="#FFFFFF" d="M168.4,176.6c-0.3,3.4-3.3,5.9-6.7,5.7s-5.9-3.3-5.7-6.7c0.3-3.4,3.3-5.9,6.7-5.7
				S168.7,173.2,168.4,176.6z M167.9,176.5c0.3-3.1-2.1-5.9-5.2-6.1c-3.1-0.3-5.9,2.1-6.1,5.2c-0.3,3.1,2.1,5.9,5.2,6.1
				C164.9,182,167.6,179.7,167.9,176.5z"/>
			<path fill="#FFFFFF" d="M166.5,173.5c0.2,0.6,0.3,1.3,0.2,2c-0.3,3.1-3,5.4-6,5.1c-0.2,0-0.3,0-0.5-0.1c0.5,0.2,1,0.4,1.6,0.4
				c2.7,0.2,5.2-1.8,5.4-4.6C167.3,175.4,167,174.4,166.5,173.5z"/>
			<path fill="#FFFFFF" d="M163.2,171.8c0.2-0.3-1.1-1.3-2.8-0.7c-1.7,0.6-2.1,2.2-1.8,2.3c0.3,0.1,1.1-0.7,2.2-1.1
				C161.9,171.9,163,172.2,163.2,171.8z"/>
		</g>
		<g>
			<path fill="#FFFFFF" d="M188.4,134.1c-0.6,4.4-4.6,7.5-9,7c-4.4-0.6-7.5-4.6-7-9c0.6-4.4,4.6-7.5,9-7
				C185.8,125.6,188.9,129.7,188.4,134.1z M187.7,134c0.5-4-2.4-7.8-6.4-8.3s-7.8,2.4-8.3,6.4c-0.5,4,2.4,7.8,6.4,8.3
				C183.5,140.9,187.2,138,187.7,134z"/>
			<path fill="#FFFFFF" d="M186.1,130c0.2,0.8,0.3,1.7,0.2,2.7c-0.5,4-4.2,6.8-8.2,6.3c-0.2,0-0.4-0.1-0.6-0.1
				c0.6,0.3,1.3,0.5,2.1,0.6c3.6,0.5,6.8-2.1,7.3-5.6C187,132.5,186.7,131.2,186.1,130z"/>
			<path fill="#FFFFFF" d="M181.9,127.6c0.3-0.4-1.4-1.7-3.6-1c-2.2,0.7-2.9,2.7-2.4,2.9c0.4,0.2,1.4-0.9,2.9-1.3
				C180.2,127.7,181.6,128,181.9,127.6z"/>
		</g>
		<g>
			<path fill="#FFFFFF" d="M191.2,99.4c-0.1,3.9-3.3,7-7.1,6.9s-7-3.3-6.9-7.1c0.1-3.9,3.3-7,7.1-6.9S191.2,95.5,191.2,99.4z
				 M190.6,99.4c0.1-3.5-2.8-6.5-6.3-6.5c-3.5-0.1-6.5,2.8-6.5,6.3c-0.1,3.5,2.8,6.5,6.3,6.5C187.6,105.7,190.5,102.9,190.6,99.4z"
				/>
			<path fill="#FFFFFF" d="M188.8,96.1c0.3,0.7,0.4,1.5,0.4,2.3c-0.1,3.5-2.9,6.3-6.5,6.3c-0.2,0-0.4,0-0.6,0
				c0.6,0.2,1.2,0.3,1.9,0.4c3.1,0,5.7-2.4,5.7-5.6C189.8,98.1,189.4,97,188.8,96.1z"/>
			<path fill="#FFFFFF" d="M184.9,94.4c0.2-0.3-1.4-1.3-3.2-0.5c-1.9,0.8-2.2,2.6-1.8,2.7c0.4,0.1,1.1-0.9,2.4-1.4
				C183.5,94.6,184.7,94.8,184.9,94.4z"/>
		</g>
	</g>
</g>
<g>
	<g>
		<path fill="#FFFFFF" d="M362.3,820.1c-30.9,0-56,25.1-56,56c0,30.9,25.1,56,56,56c30.9,0,56-25.1,56-56
			C418.4,845.2,393.2,820.1,362.3,820.1z M362.3,926.7c-27.9,0-50.7-22.7-50.7-50.7c0-27.9,22.7-50.7,50.7-50.7
			c28,0,50.7,22.7,50.7,50.7C413,904,390.3,926.7,362.3,926.7z"/>
		<path fill="#FFFFFF" d="M362.4,909.9c-19.9,0-37.4-10-47.8-25.3c6.9,19.8,25.7,34.1,47.8,34.1c22.2,0,41-14.3,47.8-34.1
			C399.8,899.8,382.2,909.9,362.4,909.9z"/>
		<path fill="#FFFFFF" d="M362.4,832.4c14.3,0,26.8,7.2,34.3,18.2c-4.9-14.2-18.4-24.4-34.3-24.4c-15.9,0-29.4,10.2-34.3,24.4
			C335.5,839.6,348.1,832.4,362.4,832.4z"/>
	</g>
	<g>
		<g>
			<path fill="#FFFFFF" d="M370.4,738.6c0.5,13.1-9.8,24.2-22.9,24.7c-13.1,0.5-24.2-9.8-24.7-22.9c-0.5-13.1,9.8-24.2,22.9-24.7
				C358.9,715.2,369.9,725.5,370.4,738.6z M368.1,738.7c-0.4-11.9-10.4-21.2-22.3-20.7c-11.9,0.4-21.2,10.4-20.7,22.3
				c0.4,11.9,10.4,21.2,22.3,20.7C359.3,760.6,368.6,750.5,368.1,738.7z"/>
			<path fill="#FFFFFF" d="M347.1,753.8c-8.4,0.3-16-3.7-20.7-10c3.2,8.3,11.4,14.1,20.8,13.7s17.2-6.7,19.8-15.2
				C362.9,749,355.6,753.5,347.1,753.8z"/>
			<path fill="#FFFFFF" d="M345.9,720.9c6.1-0.2,11.5,2.6,14.8,7.2c-2.3-6-8.2-10.1-14.9-9.8c-6.7,0.2-12.3,4.8-14.2,10.9
				C334.6,724.4,339.9,721.1,345.9,720.9z"/>
		</g>
		<g>
			<path fill="#FFFFFF" d="M388.4,719.4c0.6,4.7-2.7,9-7.4,9.6c-4.7,0.6-9-2.7-9.6-7.4c-0.6-4.7,2.7-9,7.4-9.6
				C383.4,711.4,387.7,714.7,388.4,719.4z M387.5,719.5c-0.6-4.2-4.5-7.2-8.7-6.7c-4.2,0.6-7.2,4.5-6.7,8.7c0.6,4.2,4.5,7.2,8.7,6.7
				C385.1,727.7,388.1,723.8,387.5,719.5z"/>
			<path fill="#FFFFFF" d="M380.5,725.7c-3,0.4-5.9-0.8-7.8-2.9c1.4,2.9,4.6,4.7,8,4.2c3.4-0.4,5.9-3,6.6-6.2
				C386,723.4,383.5,725.3,380.5,725.7z"/>
			<path fill="#FFFFFF" d="M379,713.9c2.2-0.3,4.2,0.6,5.6,2.1c-1-2.1-3.3-3.3-5.7-3c-2.4,0.3-4.3,2.1-4.7,4.4
				C375,715.5,376.8,714.2,379,713.9z"/>
		</g>
		<g>
			<path fill="#FFFFFF" d="M356.2,683.9c0.1,8.7-6.9,15.8-15.5,15.9c-8.7,0.1-15.8-6.9-15.9-15.5c-0.1-8.7,6.9-15.8,15.5-15.9
				C348.9,668.3,356.1,675.3,356.2,683.9z M354.7,683.9c-0.1-7.8-6.6-14.2-14.4-14.1c-7.8,0.1-14.2,6.6-14.1,14.4
				c0.1,7.8,6.6,14.2,14.4,14.1C348.5,698.2,354.8,691.8,354.7,683.9z"/>
			<path fill="#FFFFFF" d="M340.6,693.6c-5.6,0.1-10.5-2.7-13.5-7c2,5.5,7.3,9.5,13.5,9.4c6.2-0.1,11.5-4.1,13.3-9.7
				C351,690.7,346.1,693.5,340.6,693.6z"/>
			<path fill="#FFFFFF" d="M340.3,671.8c4,0,7.6,1.9,9.7,5c-1.4-4-5.2-6.8-9.7-6.7c-4.5,0.1-8.2,3-9.5,7
				C332.8,674,336.3,671.9,340.3,671.8z"/>
		</g>
		<g>
			<path fill="#FFFFFF" d="M381.6,640.6c1.2,10-5.9,19.1-15.9,20.3c-10,1.2-19.1-5.9-20.3-15.9c-1.2-10,5.9-19.1,15.9-20.3
				C371.3,623.5,380.4,630.6,381.6,640.6z M379.9,640.8c-1.1-9-9.3-15.5-18.3-14.4c-9,1.1-15.5,9.3-14.4,18.3
				c1.1,9,9.3,15.5,18.3,14.4C374.5,658,381,649.8,379.9,640.8z"/>
			<path fill="#FFFFFF" d="M364.9,653.7c-6.4,0.8-12.5-1.8-16.4-6.3c3,6.1,9.6,10,16.8,9.1s12.7-6.2,14.1-12.9
				C376.5,649,371.3,652.9,364.9,653.7z"/>
			<path fill="#FFFFFF" d="M361.8,628.7c4.6-0.6,8.9,1.3,11.8,4.5c-2.1-4.4-6.9-7.2-12-6.5c-5.1,0.6-9.1,4.5-10.1,9.2
				C353.4,632.1,357.2,629.2,361.8,628.7z"/>
		</g>
		<g>
			<path fill="#FFFFFF" d="M393.5,615.4c0.8,8.7-5.7,16.5-14.5,17.2c-8.7,0.8-16.5-5.7-17.2-14.5c-0.8-8.7,5.7-16.5,14.5-17.2
				C385.1,600.1,392.8,606.6,393.5,615.4z M392,615.5c-0.7-7.9-7.7-13.8-15.6-13.1c-7.9,0.7-13.8,7.7-13.1,15.6
				c0.7,7.9,7.7,13.8,15.6,13.1C386.8,630.4,392.7,623.4,392,615.5z"/>
			<path fill="#FFFFFF" d="M378.5,626.3c-5.6,0.5-10.8-1.9-14.1-6c2.4,5.4,8.1,9,14.4,8.5c6.3-0.5,11.2-5,12.7-10.8
				C388.9,622.6,384.2,625.8,378.5,626.3z"/>
			<path fill="#FFFFFF" d="M376.6,604.4c4-0.3,7.8,1.4,10.1,4.3c-1.7-3.9-5.8-6.5-10.3-6.1c-4.5,0.4-8.1,3.6-9.1,7.7
				C369.2,607.1,372.6,604.7,376.6,604.4z"/>
		</g>
		<g>
			<path fill="#FFFFFF" d="M412.1,584.6c0,7.5-6,13.6-13.5,13.6c-7.5,0-13.6-6-13.6-13.5c0-7.5,6-13.6,13.5-13.6
				C406,571.1,412.1,577.1,412.1,584.6z M410.8,584.6c0-6.8-5.5-12.3-12.3-12.2c-6.8,0-12.3,5.5-12.2,12.3c0,6.8,5.5,12.3,12.3,12.2
				C405.4,596.9,410.9,591.4,410.8,584.6z"/>
			<path fill="#FFFFFF" d="M398.6,592.8c-4.8,0-9.1-2.4-11.6-6.1c1.7,4.8,6.2,8.2,11.6,8.2s9.9-3.5,11.6-8.3
				C407.6,590.4,403.4,592.8,398.6,592.8z"/>
			<path fill="#FFFFFF" d="M398.5,574.1c3.5,0,6.5,1.7,8.3,4.4c-1.2-3.4-4.5-5.9-8.3-5.9c-3.8,0-7.1,2.5-8.3,5.9
				C392.1,575.8,395.1,574.1,398.5,574.1z"/>
		</g>
		<g>
			<path fill="#FFFFFF" d="M418.7,539.7c1.1,10.5-6.5,19.9-17,21c-10.5,1.1-19.9-6.5-21-17c-1.1-10.5,6.5-19.9,17-21
				C408.1,521.6,417.6,529.2,418.7,539.7z M416.9,539.9c-1-9.5-9.5-16.4-19-15.4c-9.5,1-16.4,9.5-15.4,19c1,9.5,9.5,16.4,19,15.4
				C411,557.9,417.9,549.4,416.9,539.9z"/>
			<path fill="#FFFFFF" d="M400.9,553.2c-6.7,0.7-13-2.1-17.1-6.9c3,6.5,9.9,10.6,17.4,9.9c7.5-0.8,13.4-6.3,15-13.3
				C413.2,548.4,407.6,552.5,400.9,553.2z"/>
			<path fill="#FFFFFF" d="M398.1,526.9c4.8-0.5,9.4,1.5,12.3,4.9c-2.2-4.6-7.1-7.6-12.5-7.1c-5.4,0.6-9.6,4.5-10.7,9.5
				C389.3,530.3,393.3,527.4,398.1,526.9z"/>
		</g>
		<g>
			<path fill="#FFFFFF" d="M364.9,515.8c0.2,4.7-3.5,8.6-8.1,8.8c-4.7,0.2-8.6-3.5-8.8-8.1c-0.2-4.7,3.5-8.6,8.1-8.8
				C360.7,507.5,364.7,511.1,364.9,515.8z M364,515.8c-0.2-4.2-3.7-7.5-7.9-7.3c-4.2,0.2-7.5,3.7-7.3,7.9c0.2,4.2,3.7,7.5,7.9,7.3
				C360.9,523.6,364.2,520,364,515.8z"/>
			<path fill="#FFFFFF" d="M356.6,521.2c-3,0.1-5.7-1.3-7.4-3.5c1.2,2.9,4.1,5,7.4,4.9c3.3-0.1,6.1-2.4,7-5.4
				C362.2,519.5,359.6,521.1,356.6,521.2z"/>
			<path fill="#FFFFFF" d="M356.2,509.6c2.1-0.1,4.1,0.9,5.3,2.5c-0.8-2.1-2.9-3.6-5.3-3.5c-2.4,0.1-4.4,1.7-5,3.9
				C352.2,510.8,354,509.6,356.2,509.6z"/>
		</g>
		<g>
			<path fill="#FFFFFF" d="M376,461.6c0.8,6.3-3.7,12-10,12.8c-6.3,0.8-12-3.7-12.8-10c-0.8-6.3,3.7-12,10-12.8
				C369.5,450.8,375.2,455.3,376,461.6z M374.9,461.7c-0.7-5.7-5.9-9.7-11.6-9.1c-5.7,0.7-9.7,5.9-9.1,11.6
				c0.7,5.7,5.9,9.7,11.6,9.1C371.5,472.6,375.6,467.4,374.9,461.7z"/>
			<path fill="#FFFFFF" d="M365.4,469.9c-4,0.5-7.9-1.1-10.4-4c1.9,3.9,6.1,6.3,10.6,5.7s8-3.9,8.9-8.1
				C372.8,466.9,369.5,469.4,365.4,469.9z"/>
			<path fill="#FFFFFF" d="M363.5,454.1c2.9-0.4,5.6,0.8,7.4,2.8c-1.4-2.8-4.4-4.5-7.6-4.1c-3.2,0.4-5.7,2.8-6.4,5.8
				C358.2,456.2,360.6,454.5,363.5,454.1z"/>
		</g>
		<g>
			<path fill="#FFFFFF" d="M408.6,421.2c0.6,12.1-8.8,22.3-20.8,22.9c-12.1,0.6-22.3-8.8-22.9-20.8c-0.6-12.1,8.8-22.3,20.8-22.9
				C397.7,399.8,408,409.2,408.6,421.2z M406.5,421.3c-0.5-10.9-9.8-19.4-20.7-18.9c-10.9,0.5-19.4,9.8-18.9,20.7
				c0.5,10.9,9.8,19.4,20.7,18.9C398.5,441.5,407,432.2,406.5,421.3z"/>
			<path fill="#FFFFFF" d="M387.3,435.5c-7.8,0.4-14.8-3.2-19.1-9c3,7.6,10.6,12.8,19.3,12.4c8.7-0.4,15.7-6.3,18-14.2
				C401.7,430.8,395.1,435.1,387.3,435.5z"/>
			<path fill="#FFFFFF" d="M385.9,405.2c5.6-0.3,10.6,2.3,13.7,6.5c-2.2-5.5-7.6-9.2-13.8-8.9c-6.2,0.3-11.3,4.5-12.9,10.2
				C375.5,408.5,380.3,405.5,385.9,405.2z"/>
		</g>
		<g>
			<path fill="#FFFFFF" d="M356,396.9c0,3.9-3.2,7.2-7.1,7.2c-3.9,0-7.2-3.2-7.2-7.1c0-3.9,3.2-7.2,7.1-7.2
				C352.7,389.8,355.9,393,356,396.9z M355.3,396.9c0-3.6-2.9-6.5-6.5-6.4c-3.6,0-6.5,2.9-6.4,6.5c0,3.6,2.9,6.5,6.5,6.4
				C352.4,403.4,355.3,400.5,355.3,396.9z"/>
			<path fill="#FFFFFF" d="M348.8,401.3c-2.5,0-4.8-1.3-6.1-3.2c0.9,2.5,3.3,4.3,6.1,4.3c2.8,0,5.2-1.9,6.1-4.4
				C353.6,400,351.4,401.3,348.8,401.3z"/>
			<path fill="#FFFFFF" d="M348.8,391.4c1.8,0,3.4,0.9,4.4,2.3c-0.6-1.8-2.4-3.1-4.4-3.1s-3.7,1.3-4.4,3.1
				C345.3,392.3,346.9,391.4,348.8,391.4z"/>
		</g>
		<g>
			<path fill="#FFFFFF" d="M360.8,361.1c0.9,6.6-3.6,12.7-10.2,13.6c-6.6,0.9-12.7-3.6-13.6-10.2c-0.9-6.6,3.6-12.7,10.2-13.6
				C353.7,350,359.9,354.5,360.8,361.1z M359.7,361.3c-0.9-5.9-6.4-10.1-12.3-9.2c-5.9,0.9-10.1,6.4-9.2,12.3
				c0.9,5.9,6.4,10.1,12.3,9.2C356.4,372.7,360.5,367.2,359.7,361.3z"/>
			<path fill="#FFFFFF" d="M349.9,370c-4.2,0.6-8.3-1-10.9-3.9c2.1,4,6.5,6.5,11.2,5.8c4.7-0.7,8.3-4.3,9.1-8.7
				C357.6,366.7,354.1,369.4,349.9,370z"/>
			<path fill="#FFFFFF" d="M347.6,353.5c3-0.4,5.9,0.7,7.8,2.8c-1.5-2.9-4.7-4.6-8-4.2c-3.4,0.5-5.9,3.1-6.5,6.2
				C342.1,355.9,344.5,353.9,347.6,353.5z"/>
		</g>
		<g>
			<path fill="#FFFFFF" d="M412.8,327.3c1.3,9.8-5.6,18.8-15.4,20.1c-9.8,1.3-18.8-5.6-20.1-15.4c-1.3-9.8,5.6-18.8,15.4-20.1
				C402.4,310.7,411.5,317.6,412.8,327.3z M411.1,327.6c-1.2-8.8-9.3-15.1-18.2-13.9c-8.8,1.2-15.1,9.3-13.9,18.2
				c1.2,8.8,9.3,15.1,18.2,13.9C406,344.6,412.3,336.4,411.1,327.6z"/>
			<path fill="#FFFFFF" d="M396.5,340.4c-6.3,0.8-12.3-1.6-16.2-6c3,6,9.6,9.7,16.6,8.8c7-0.9,12.4-6.2,13.7-12.8
				C407.9,335.7,402.8,339.6,396.5,340.4z"/>
			<path fill="#FFFFFF" d="M393.2,315.9c4.5-0.6,8.8,1.1,11.6,4.3c-2.2-4.3-6.8-7-11.9-6.3c-5,0.7-8.9,4.5-9.8,9.2
				C385,319.3,388.7,316.5,393.2,315.9z"/>
		</g>
		<g>
			<path fill="#FFFFFF" d="M363.6,300.5c0.4,12.5-9.5,23-22,23.3c-12.5,0.4-23-9.5-23.3-22c-0.4-12.5,9.5-23,22-23.3
				C352.8,278.2,363.3,288,363.6,300.5z M361.5,300.6c-0.3-11.3-9.8-20.2-21.1-19.9c-11.3,0.3-20.2,9.8-19.9,21.1
				c0.3,11.3,9.8,20.2,21.1,19.9C352.9,321.4,361.8,311.9,361.5,300.6z"/>
			<path fill="#FFFFFF" d="M341.4,314.9c-8,0.2-15.3-3.6-19.7-9.7c3,7.9,10.8,13.5,19.8,13.2c9-0.3,16.4-6.3,18.9-14.4
				C356.4,310.4,349.4,314.6,341.4,314.9z"/>
			<path fill="#FFFFFF" d="M340.5,283.5c5.8-0.2,10.9,2.6,14.1,6.9c-2.2-5.7-7.7-9.7-14.2-9.5c-6.4,0.2-11.8,4.5-13.6,10.3
				C329.7,286.8,334.7,283.7,340.5,283.5z"/>
		</g>
		<g>
			<path fill="#FFFFFF" d="M355.5,245.1c1.1,10.9-6.9,20.7-17.8,21.9c-10.9,1.1-20.7-6.9-21.8-17.8c-1.1-10.9,6.9-20.7,17.8-21.8
				C344.6,226.2,354.4,234.2,355.5,245.1z M353.7,245.3c-1-9.9-9.9-17.1-19.8-16.1c-9.9,1-17.1,9.9-16.1,19.8
				c1,9.9,9.9,17.1,19.8,16.1C347.5,264.1,354.7,255.2,353.7,245.3z"/>
			<path fill="#FFFFFF" d="M337,259.1c-7,0.7-13.6-2.2-17.8-7.2c3.1,6.8,10.3,11.1,18.2,10.3s14-6.5,15.7-13.8
				C349.8,254.2,344,258.4,337,259.1z"/>
			<path fill="#FFFFFF" d="M334.1,231.7c5-0.5,9.8,1.6,12.8,5.2c-2.3-4.9-7.4-8-13-7.4c-5.6,0.6-10,4.7-11.2,9.9
				C324.9,235.2,329.1,232.2,334.1,231.7z"/>
		</g>
		<g>
			<path fill="#FFFFFF" d="M339.4,226.7c1.4,9.8-5.4,18.9-15.2,20.3c-9.8,1.4-18.9-5.4-20.3-15.2c-1.4-9.8,5.4-18.9,15.2-20.3
				C328.9,210,338,216.8,339.4,226.7z M337.7,226.9c-1.3-8.9-9.5-15.1-18.4-13.8c-8.9,1.3-15.1,9.5-13.8,18.4
				c1.3,8.9,9.5,15.1,18.4,13.8C332.8,244,339,235.8,337.7,226.9z"/>
			<path fill="#FFFFFF" d="M323.2,240c-6.3,0.9-12.3-1.5-16.3-5.9c3.1,6,9.7,9.7,16.7,8.6s12.4-6.4,13.6-13
				C334.6,235.1,329.5,239,323.2,240z"/>
			<path fill="#FFFFFF" d="M319.6,215.3c4.5-0.7,8.8,1.1,11.7,4.2c-2.2-4.3-7-6.9-12-6.2c-5,0.7-8.9,4.6-9.8,9.3
				C311.5,218.9,315.1,216,319.6,215.3z"/>
		</g>
		<g>
			<path fill="#FFFFFF" d="M354.6,190.2c0.7,12-8.5,22.4-20.5,23.1c-12,0.7-22.4-8.5-23.1-20.5c-0.7-12,8.5-22.4,20.5-23.1
				C343.6,169,353.9,178.2,354.6,190.2z M352.6,190.3c-0.6-10.9-10-19.2-20.9-18.6c-10.9,0.6-19.2,10-18.6,20.9
				c0.6,10.9,10,19.2,20.9,18.6C344.9,210.6,353.2,201.2,352.6,190.3z"/>
			<path fill="#FFFFFF" d="M333.6,204.6c-7.7,0.5-14.8-3.1-19.2-8.8c3.1,7.6,10.8,12.7,19.4,12.2c8.6-0.5,15.6-6.5,17.8-14.4
				C348,199.9,341.4,204.2,333.6,204.6z"/>
			<path fill="#FFFFFF" d="M331.8,174.5c5.5-0.3,10.6,2.2,13.8,6.3c-2.2-5.4-7.7-9.1-13.9-8.7c-6.2,0.4-11.2,4.7-12.8,10.3
				C321.6,177.9,326.3,174.8,331.8,174.5z"/>
		</g>
		<g>
			<path fill="#FFFFFF" d="M329.1,141.5c1,8.3-4.9,15.9-13.2,17c-8.3,1-15.9-4.9-17-13.2c-1-8.3,4.9-15.9,13.2-17
				C320.4,127.3,328,133.2,329.1,141.5z M327.6,141.7c-1-7.5-7.8-12.9-15.4-11.9c-7.5,1-12.9,7.8-11.9,15.4
				c1,7.5,7.8,12.9,15.4,11.9C323.2,156.1,328.6,149.2,327.6,141.7z"/>
			<path fill="#FFFFFF" d="M315.1,152.5c-5.4,0.7-10.4-1.4-13.7-5.2c2.5,5.1,8.1,8.3,14,7.6c6-0.8,10.5-5.2,11.7-10.8
				C324.9,148.5,320.5,151.8,315.1,152.5z"/>
			<path fill="#FFFFFF" d="M312.5,131.6c3.8-0.5,7.5,1,9.8,3.7c-1.8-3.7-5.8-6-10.1-5.4c-4.3,0.5-7.6,3.7-8.4,7.7
				C305.5,134.5,308.7,132.1,312.5,131.6z"/>
		</g>
		<g>
			<path fill="#FFFFFF" d="M350.5,117.3c0.4,4.7-3,8.8-7.6,9.2c-4.7,0.4-8.8-3-9.2-7.6c-0.4-4.7,3-8.8,7.6-9.2
				C345.9,109.2,350,112.6,350.5,117.3z M349.7,117.4c-0.4-4.2-4.1-7.3-8.3-6.9c-4.2,0.4-7.3,4.1-6.9,8.3c0.4,4.2,4.1,7.3,8.3,6.9
				C347,125.3,350.1,121.6,349.7,117.4z"/>
			<path fill="#FFFFFF" d="M342.5,123.2c-3,0.3-5.8-1-7.6-3.1c1.3,2.9,4.3,4.8,7.7,4.5s6-2.7,6.7-5.8
				C348,121.1,345.5,122.9,342.5,123.2z"/>
			<path fill="#FFFFFF" d="M341.4,111.5c2.1-0.2,4.1,0.7,5.4,2.3c-0.9-2.1-3.1-3.4-5.5-3.2c-2.4,0.2-4.3,2-4.8,4.2
				C337.5,113,339.3,111.7,341.4,111.5z"/>
		</g>
		<g>
			<path fill="#FFFFFF" d="M341.2,68.7c1,14.1-9.6,26.4-23.7,27.4c-14.1,1-26.4-9.6-27.4-23.7c-1-14.1,9.6-26.4,23.7-27.4
				C327.9,44,340.2,54.6,341.2,68.7z M338.8,68.9c-0.9-12.8-12.1-22.4-24.8-21.5c-12.8,0.9-22.4,12.1-21.5,24.8
				c0.9,12.8,12.1,22.4,24.8,21.5C330.1,92.8,339.7,81.7,338.8,68.9z"/>
			<path fill="#FFFFFF" d="M316.8,86c-9.1,0.7-17.4-3.4-22.7-10c3.8,8.8,12.8,14.7,23,14c10.1-0.7,18.2-7.9,20.7-17.1
				C333.5,80.2,325.8,85.4,316.8,86z"/>
			<path fill="#FFFFFF" d="M314.2,50.6c6.5-0.5,12.5,2.4,16.2,7.2c-2.7-6.3-9.2-10.6-16.5-10c-7.3,0.5-13.1,5.6-14.8,12.3
				C302.2,54.8,307.7,51.1,314.2,50.6z"/>
		</g>
	</g>
</g>
<g>
	<path fill="#FFFFFF" d="M573.2,819.2c-31.4,0-56.9,25.5-56.9,56.9c0,31.4,25.5,56.9,56.9,56.9c31.4,0,56.9-25.5,56.9-56.9
		C630.1,844.7,604.6,819.2,573.2,819.2z M591.2,924.3c14.3-6.5,24.2-20.9,24.2-37.6c0-10.1-3.6-19.3-9.6-26.5
		c3.7,6.2,5.9,13.4,5.9,21.2c0,22.8-18.5,41.3-41.3,41.3c-12.8,0-24.2-5.8-31.8-14.9c5.4,9,14.2,15.9,24.5,18.7
		c-23.6-4.7-41.4-25.5-41.4-50.5c0-28.4,23.1-51.5,51.5-51.5c28.4,0,51.5,23.1,51.5,51.5C624.7,898.1,610.7,917,591.2,924.3z"/>
	<g>
		<g>
			<path fill="#FFFFFF" d="M598.7,695.4c-0.3,6.1-5.5,10.9-11.6,10.7c-6.1-0.3-10.9-5.5-10.7-11.6c0.3-6.1,5.5-10.9,11.6-10.7
				C594.2,684.1,599,689.3,598.7,695.4z M597.7,695.4c0.2-5.6-4.1-10.3-9.7-10.5c-5.6-0.2-10.3,4.1-10.5,9.7
				c-0.2,4.9,3.1,9.1,7.7,10.2c-2-0.6-3.7-2.1-4.7-3.9c1.4,1.8,3.6,3.1,6.1,3.2c4.5,0.2,8.3-3.3,8.4-7.8c0.1-1.5-0.3-3-1-4.2
				c1.1,1.5,1.7,3.3,1.7,5.3c-0.1,3.3-2.2,6-5.1,7.2C594.6,703.3,597.5,699.7,597.7,695.4z"/>
		</g>
		<g>
			<path fill="#FFFFFF" d="M589.2,669.2c-0.6,5.2-5.2,9-10.5,8.5c-5.2-0.6-9-5.2-8.5-10.5c0.6-5.2,5.2-9,10.5-8.5
				C585.9,659.3,589.7,664,589.2,669.2z M588.3,669.1c0.5-4.7-2.9-9-7.7-9.5c-4.7-0.5-9,2.9-9.5,7.7c-0.4,4.2,2.2,7.9,6,9.1
				c-1.7-0.7-3-1.9-3.8-3.5c1.1,1.6,2.9,2.8,5,3c3.8,0.4,7.2-2.4,7.6-6.2c0.1-1.3-0.1-2.5-0.6-3.6c0.9,1.3,1.3,2.9,1.1,4.6
				c-0.3,2.8-2.2,5-4.7,5.8C585.2,675.7,587.9,672.8,588.3,669.1z"/>
		</g>
		<g>
			<path fill="#FFFFFF" d="M597,649.4c3.5,8.2-0.4,17.8-8.7,21.2c-8.2,3.5-17.8-0.4-21.2-8.7c-3.5-8.2,0.4-17.8,8.7-21.2
				C584,637.2,593.5,641.1,597,649.4z M595.6,649.9c-3.1-7.5-11.7-11-19.2-7.9c-7.5,3.1-11,11.7-7.9,19.2c2.7,6.6,9.7,10.1,16.4,8.7
				c-3,0.4-6.1-0.4-8.5-2.2c3,1.6,6.6,1.8,10,0.4c6-2.5,8.8-9.4,6.3-15.4c-0.9-2-2.2-3.7-3.9-4.9c2.4,1.2,4.3,3.3,5.4,5.9
				c1.8,4.4,0.8,9.3-2.2,12.6C596.4,662.2,598,655.8,595.6,649.9z"/>
		</g>
		<g>
			<path fill="#FFFFFF" d="M586.7,637.3c1.8,6.6-2.1,13.4-8.7,15.2c-6.6,1.8-13.4-2.1-15.2-8.7c-1.8-6.6,2.1-13.4,8.7-15.2
				C578.2,626.8,585,630.7,586.7,637.3z M585.6,637.6c-1.6-5.9-7.8-9.5-13.7-7.9c-5.9,1.6-9.5,7.8-7.9,13.7
				c1.4,5.2,6.3,8.6,11.5,8.2c-2.3,0-4.6-0.9-6.2-2.5c2.1,1.5,4.8,2,7.5,1.3c4.8-1.3,7.6-6.2,6.3-11c-0.4-1.6-1.3-3-2.4-4.1
				c1.7,1.2,2.9,2.9,3.5,5c1,3.5-0.3,7.1-2.9,9.3C585,647,586.9,642.2,585.6,637.6z"/>
		</g>
		<g>
			<path fill="#FFFFFF" d="M595.6,609.3c2.7,6.5-0.4,14-6.9,16.7c-6.5,2.7-14-0.4-16.7-6.9c-2.7-6.5,0.4-14,6.9-16.7
				C585.4,599.8,592.8,602.8,595.6,609.3z M594.4,609.8c-2.5-5.9-9.2-8.7-15.1-6.2c-5.9,2.5-8.7,9.2-6.2,15.1
				c2.2,5.2,7.6,7.9,12.9,6.9c-2.4,0.3-4.8-0.3-6.7-1.7c2.4,1.2,5.2,1.4,7.9,0.3c4.7-2,7-7.4,5-12.1c-0.7-1.6-1.7-2.9-3-3.9
				c1.9,1,3.4,2.6,4.3,4.6c1.4,3.5,0.6,7.3-1.8,9.9C595.1,619.5,596.3,614.4,594.4,609.8z"/>
		</g>
		<g>
			<path fill="#FFFFFF" d="M612.7,578.9c1.8,6.7-2.2,13.6-8.9,15.4c-6.7,1.8-13.6-2.2-15.4-8.9c-1.8-6.7,2.2-13.6,8.9-15.4
				C604,568.2,610.9,572.2,612.7,578.9z M611.5,579.2c-1.6-6.1-7.9-9.7-13.9-8.1c-6.1,1.6-9.7,7.9-8.1,13.9
				c1.4,5.3,6.4,8.8,11.7,8.4c-2.4,0-4.6-1-6.3-2.6c2.1,1.5,4.9,2.1,7.6,1.4c4.9-1.3,7.8-6.3,6.5-11.2c-0.4-1.7-1.3-3.1-2.5-4.2
				c1.7,1.2,3,3,3.6,5.1c1,3.6-0.3,7.2-3,9.4C610.9,588.8,612.8,584,611.5,579.2z"/>
		</g>
		<g>
			<path fill="#FFFFFF" d="M588.3,566.3c2.3,6.6-1.3,13.9-7.9,16.2c-6.6,2.3-13.9-1.3-16.2-7.9c-2.3-6.6,1.3-13.9,7.9-16.2
				C578.7,556.1,586,559.7,588.3,566.3z M587.2,566.7c-2.1-6-8.7-9.2-14.7-7.2c-6,2.1-9.2,8.7-7.2,14.7c1.8,5.3,7.1,8.4,12.5,7.7
				c-2.4,0.2-4.8-0.7-6.6-2.2c2.3,1.4,5.1,1.8,7.8,0.8c4.8-1.7,7.4-6.9,5.7-11.8c-0.6-1.6-1.6-3-2.8-4.1c1.8,1.1,3.2,2.8,4,4.9
				c1.2,3.5,0.2,7.3-2.4,9.7C587.2,576.4,588.8,571.4,587.2,566.7z"/>
		</g>
		<g>
			<path fill="#FFFFFF" d="M607.8,552.5c-0.6,3.8-4.1,6.4-7.9,5.9c-3.8-0.6-6.4-4.1-5.9-7.9c0.6-3.8,4.1-6.4,7.9-5.9
				C605.7,545.2,608.4,548.7,607.8,552.5z M607.1,552.4c0.5-3.4-1.9-6.6-5.3-7.1c-3.4-0.5-6.6,1.9-7.1,5.3c-0.4,3,1.3,5.8,4.1,6.8
				c-1.2-0.5-2.1-1.5-2.6-2.7c0.8,1.2,2,2.1,3.6,2.4c2.8,0.4,5.3-1.5,5.7-4.3c0.1-0.9,0-1.8-0.3-2.7c0.6,1,0.9,2.2,0.7,3.4
				c-0.3,2-1.8,3.6-3.6,4.1C604.7,557.1,606.7,555.1,607.1,552.4z"/>
		</g>
		<g>
			<path fill="#FFFFFF" d="M608.9,539.8c0.7,5.8-3.4,11.1-9.2,11.8c-5.8,0.7-11.1-3.4-11.8-9.2c-0.7-5.8,3.4-11.1,9.2-11.8
				C602.8,529.9,608.1,534,608.9,539.8z M607.9,539.9c-0.6-5.2-5.4-9-10.7-8.3c-5.2,0.6-9,5.4-8.3,10.7c0.6,4.6,4.3,8.1,8.8,8.4
				c-2-0.3-3.8-1.3-5-2.9c1.6,1.5,3.9,2.3,6.2,2c4.2-0.5,7.2-4.4,6.7-8.6c-0.2-1.4-0.7-2.7-1.6-3.8c1.3,1.2,2.1,2.8,2.4,4.7
				c0.4,3.1-1.1,6-3.6,7.5C606.2,547.8,608.4,544,607.9,539.9z"/>
		</g>
		<g>
			<path fill="#FFFFFF" d="M601.2,516.3c2.7,8.2-1.7,17-9.9,19.8c-8.2,2.7-17-1.7-19.8-9.9c-2.7-8.2,1.7-17,9.9-19.8
				C589.6,503.7,598.5,508.2,601.2,516.3z M599.8,516.8c-2.5-7.4-10.5-11.4-17.9-9c-7.4,2.5-11.4,10.5-9,17.9
				c2.2,6.5,8.6,10.4,15.2,9.6c-3,0.2-5.8-0.9-8-2.8c2.8,1.7,6.2,2.2,9.6,1.1c6-2,9.2-8.4,7.2-14.4c-0.7-2-1.9-3.7-3.4-5
				c2.2,1.4,3.9,3.4,4.8,6.1c1.5,4.4,0.1,9-3.1,11.9C599.7,528.7,601.7,522.6,599.8,516.8z"/>
		</g>
		<g>
			<path fill="#FFFFFF" d="M609.2,485.9c-0.3,6.9-6.2,12.2-13.1,11.9c-6.9-0.3-12.2-6.2-11.9-13.1c0.3-6.9,6.2-12.2,13.1-11.9
				C604.2,473.1,609.5,479,609.2,485.9z M608,485.8c0.3-6.2-4.5-11.6-10.8-11.9c-6.2-0.3-11.6,4.5-11.9,10.8
				c-0.3,5.5,3.4,10.2,8.5,11.5c-2.3-0.7-4.1-2.3-5.2-4.4c1.6,2.1,4,3.5,6.8,3.6c5,0.2,9.3-3.6,9.5-8.6c0.1-1.7-0.3-3.3-1.1-4.7
				c1.2,1.6,1.9,3.7,1.8,5.9c-0.2,3.7-2.5,6.7-5.7,8C604.5,494.6,607.7,490.7,608,485.8z"/>
		</g>
		<g>
			<path fill="#FFFFFF" d="M615.2,448.8c0.7,7.7-4.9,14.5-12.6,15.2c-7.7,0.7-14.5-4.9-15.2-12.6c-0.7-7.7,4.9-14.5,12.6-15.2
				C607.7,435.5,614.5,441.2,615.2,448.8z M613.9,448.9c-0.7-6.9-6.8-12-13.8-11.4c-6.9,0.7-12,6.8-11.4,13.8
				c0.6,6.1,5.4,10.8,11.3,11.4c-2.6-0.5-4.9-1.9-6.4-4c2.1,2,5,3.2,8.1,2.9c5.6-0.5,9.7-5.5,9.1-11.1c-0.2-1.9-0.9-3.6-1.9-5
				c1.6,1.6,2.7,3.8,3,6.2c0.4,4.1-1.7,7.8-5,9.7C611.5,459.3,614.4,454.3,613.9,448.9z"/>
		</g>
		<g>
			<path fill="#FFFFFF" d="M592.7,436.4c1.6,8.7-4.1,17.1-12.8,18.8c-8.7,1.6-17.1-4.1-18.8-12.8c-1.6-8.7,4.1-17.1,12.8-18.8
				C582.7,421.9,591.1,427.7,592.7,436.4z M591.2,436.7c-1.5-7.9-9.1-13.1-17-11.6c-7.9,1.5-13.1,9.1-11.6,17
				c1.3,6.9,7.3,11.8,14.1,11.9c-3-0.2-5.8-1.7-7.8-3.9c2.6,2.1,6.1,3.1,9.6,2.5c6.3-1.2,10.5-7.3,9.3-13.6c-0.4-2.2-1.4-4-2.7-5.6
				c2,1.7,3.5,4,4,6.8c0.9,4.6-1.1,9.2-4.8,11.7C589.5,448.7,592.4,442.8,591.2,436.7z"/>
		</g>
		<g>
			<path fill="#FFFFFF" d="M593.9,404.3c0.1,3.7-2.9,6.7-6.5,6.8c-3.7,0.1-6.7-2.9-6.8-6.5c-0.1-3.7,2.9-6.7,6.5-6.8
				C590.8,397.7,593.8,400.6,593.9,404.3z M593.3,404.3c-0.1-3.3-2.8-6-6.2-5.9c-3.3,0.1-6,2.8-5.9,6.2c0.1,2.9,2.2,5.3,5,5.8
				c-1.2-0.3-2.3-1.1-2.9-2.1c0.9,1,2.3,1.7,3.8,1.7c2.7-0.1,4.8-2.3,4.8-4.9c0-0.9-0.3-1.8-0.7-2.5c0.7,0.8,1.2,1.9,1.2,3.1
				c0,2-1.1,3.7-2.8,4.5C591.7,409.1,593.3,406.9,593.3,404.3z"/>
		</g>
		<g>
			<path fill="#FFFFFF" d="M609.4,385.6c-0.3,4.2-3.9,7.3-8.1,7c-4.2-0.3-7.3-3.9-7-8.1c0.3-4.2,3.9-7.3,8.1-7
				C606.5,377.8,609.7,381.5,609.4,385.6z M608.7,385.6c0.3-3.8-2.6-7-6.3-7.3c-3.8-0.3-7,2.6-7.3,6.3c-0.2,3.3,1.9,6.2,5,7.1
				c-1.4-0.5-2.4-1.5-3.1-2.7c0.9,1.3,2.4,2.2,4.1,2.3c3,0.2,5.7-2.1,5.9-5.1c0.1-1-0.1-2-0.6-2.9c0.7,1,1.1,2.3,1,3.6
				c-0.2,2.2-1.6,4-3.6,4.8C606.4,390.9,608.5,388.5,608.7,385.6z"/>
		</g>
		<g>
			<path fill="#FFFFFF" d="M585.8,348c1,8.3-4.9,15.9-13.3,16.9c-8.3,1-15.9-4.9-16.9-13.3c-1-8.3,4.9-15.9,13.3-16.9
				C577.2,333.7,584.8,339.7,585.8,348z M584.4,348.2c-0.9-7.5-7.8-12.9-15.3-12c-7.5,0.9-12.9,7.8-12,15.3
				c0.8,6.6,6.2,11.6,12.6,12.1c-2.9-0.4-5.4-2-7.1-4.2c2.3,2.2,5.5,3.3,8.9,2.9c6.1-0.7,10.4-6.2,9.7-12.3
				c-0.2-2.1-1.1-3.9-2.2-5.4c1.8,1.7,3.1,4,3.4,6.7c0.5,4.4-1.6,8.6-5.2,10.8C582,359.5,585.1,354.1,584.4,348.2z"/>
		</g>
		<g>
			<path fill="#FFFFFF" d="M588,311.9c0.6,6-3.7,11.3-9.7,12c-6,0.6-11.3-3.7-12-9.7c-0.6-6,3.7-11.3,9.7-12
				C582,301.6,587.4,305.9,588,311.9z M587,312c-0.6-5.4-5.4-9.3-10.8-8.7c-5.4,0.6-9.3,5.4-8.7,10.8c0.5,4.7,4.3,8.3,8.9,8.8
				c-2-0.3-3.8-1.5-5-3.1c1.6,1.6,3.9,2.4,6.3,2.2c4.3-0.5,7.5-4.4,7-8.7c-0.2-1.5-0.7-2.8-1.5-3.9c1.3,1.2,2.2,2.9,2.4,4.8
				c0.3,3.2-1.3,6.1-3.8,7.6C585.2,320.1,587.4,316.2,587,312z"/>
		</g>
		<g>
			<path fill="#FFFFFF" d="M591,287.6c1.1,6-2.9,11.7-8.9,12.8c-6,1.1-11.7-2.9-12.8-8.9c-1.1-6,2.9-11.7,8.9-12.8
				C584.2,277.6,589.9,281.6,591,287.6z M589.9,287.8c-1-5.4-6.2-9-11.6-8c-5.4,1-9,6.2-8,11.6c0.9,4.7,5,8.1,9.6,8.2
				c-2.1-0.2-4-1.2-5.3-2.7c1.8,1.5,4.1,2.2,6.6,1.7c4.3-0.8,7.2-4.9,6.5-9.3c-0.3-1.5-0.9-2.8-1.8-3.8c1.4,1.2,2.4,2.8,2.7,4.7
				c0.6,3.2-0.8,6.3-3.3,8C588.7,296,590.7,292,589.9,287.8z"/>
		</g>
		<g>
			<path fill="#FFFFFF" d="M574.8,254.6c0.1,5.3-4.2,9.7-9.5,9.7c-5.3,0.1-9.7-4.2-9.7-9.5c-0.1-5.3,4.2-9.7,9.5-9.7
				C570.4,245.1,574.8,249.3,574.8,254.6z M573.9,254.6c-0.1-4.8-4-8.6-8.8-8.6c-4.8,0.1-8.6,4-8.6,8.8c0,4.2,3.1,7.7,7.1,8.4
				c-1.8-0.5-3.3-1.6-4.2-3.1c1.3,1.5,3.2,2.5,5.4,2.5c3.9,0,6.9-3.2,6.9-7.1c0-1.3-0.4-2.5-1-3.6c1,1.2,1.6,2.7,1.7,4.4
				c0,2.8-1.6,5.3-4,6.4C571.6,261.6,574,258.4,573.9,254.6z"/>
		</g>
		<g>
			<path fill="#FFFFFF" d="M579.8,235.6c0.7,8.1-5.3,15.4-13.4,16.1c-8.1,0.7-15.4-5.3-16.1-13.4c-0.7-8.1,5.3-15.4,13.4-16.1
				C571.9,221.4,579.1,227.4,579.8,235.6z M578.4,235.7c-0.7-7.4-7.2-12.8-14.6-12.2c-7.4,0.7-12.8,7.2-12.2,14.6
				c0.6,6.5,5.7,11.5,11.9,12.1c-2.8-0.5-5.2-2.1-6.8-4.3c2.2,2.2,5.3,3.4,8.6,3.1c5.9-0.5,10.3-5.8,9.8-11.7c-0.2-2-0.9-3.8-2-5.4
				c1.7,1.7,2.9,4,3.1,6.6c0.4,4.3-1.9,8.3-5.4,10.3C575.8,246.6,578.9,241.4,578.4,235.7z"/>
		</g>
		<g>
			<path fill="#FFFFFF" d="M587.4,206.8c1.8,7.8-3.1,15.7-10.9,17.5c-7.8,1.8-15.7-3.1-17.5-10.9c-1.8-7.8,3.1-15.7,10.9-17.5
				C577.7,194.1,585.6,199,587.4,206.8z M586,207.1c-1.7-7.1-8.8-11.5-15.9-9.9c-7.1,1.7-11.5,8.8-9.9,15.9
				c1.5,6.2,7.1,10.4,13.3,10.2c-2.8-0.1-5.3-1.3-7.2-3.2c2.4,1.8,5.6,2.6,8.8,1.9c5.7-1.3,9.2-7,7.9-12.7c-0.5-1.9-1.4-3.6-2.7-4.9
				c1.9,1.4,3.3,3.5,3.9,6c1,4.2-0.7,8.3-3.9,10.8C584.9,218.2,587.3,212.6,586,207.1z"/>
		</g>
		<g>
			<path fill="#FFFFFF" d="M584.1,183.9c-0.4,7.1-6.4,12.5-13.5,12.1c-7.1-0.4-12.5-6.4-12.1-13.5c0.4-7.1,6.4-12.5,13.5-12.1
				C579.1,170.8,584.5,176.8,584.1,183.9z M582.9,183.8c0.3-6.4-4.6-11.9-11-12.2c-6.4-0.3-11.9,4.6-12.2,11
				c-0.3,5.6,3.5,10.5,8.7,11.9c-2.3-0.8-4.2-2.4-5.3-4.5c1.6,2.1,4.1,3.6,7,3.7c5.1,0.3,9.5-3.7,9.8-8.8c0.1-1.7-0.3-3.4-1.1-4.8
				c1.3,1.7,2,3.8,1.8,6.1c-0.2,3.8-2.6,6.9-5.9,8.2C579.3,192.8,582.7,188.8,582.9,183.8z"/>
		</g>
		<g>
			<path fill="#FFFFFF" d="M592.6,162.9c1.6,7.1-2.8,14.1-9.9,15.7c-7.1,1.6-14.1-2.8-15.7-9.9c-1.6-7.1,2.8-14.1,9.9-15.7
				C583.9,151.4,591,155.8,592.6,162.9z M591.4,163.1c-1.5-6.4-7.8-10.4-14.2-8.9c-6.4,1.5-10.4,7.8-8.9,14.2
				c1.3,5.6,6.4,9.4,11.9,9.2c-2.5-0.1-4.8-1.2-6.5-3c2.2,1.7,5,2.4,7.9,1.7c5.1-1.2,8.4-6.3,7.2-11.4c-0.4-1.7-1.3-3.3-2.4-4.5
				c1.7,1.3,3,3.2,3.5,5.5c0.9,3.8-0.6,7.5-3.5,9.7C590.3,173,592.5,168.1,591.4,163.1z"/>
		</g>
		<g>
			<path fill="#FFFFFF" d="M570,144.2c1.3,3.6-0.5,7.7-4.2,9c-3.6,1.3-7.7-0.5-9-4.2c-1.3-3.6,0.5-7.7,4.2-9
				C564.7,138.7,568.7,140.6,570,144.2z M569.4,144.4c-1.2-3.3-4.9-5-8.2-3.8c-3.3,1.2-5,4.9-3.8,8.2c1.1,2.9,4,4.5,7,4.1
				c-1.3,0.1-2.6-0.3-3.6-1.1c1.3,0.7,2.8,0.9,4.3,0.4c2.6-1,4-3.9,3-6.6c-0.3-0.9-0.9-1.6-1.6-2.2c1,0.6,1.8,1.5,2.2,2.7
				c0.7,1.9,0.2,4-1.2,5.4C569.5,149.8,570.4,147,569.4,144.4z"/>
		</g>
		<g>
			<path fill="#FFFFFF" d="M587.2,112.4c-0.7,6.9-6.9,11.9-13.7,11.2c-6.9-0.7-11.9-6.9-11.2-13.7c0.7-6.9,6.9-11.9,13.7-11.2
				C582.9,99.3,587.9,105.5,587.2,112.4z M586,112.2c0.6-6.2-3.9-11.8-10.1-12.4c-6.2-0.6-11.8,3.9-12.4,10.1
				c-0.6,5.5,2.9,10.4,7.9,12c-2.2-0.9-4-2.5-4.9-4.6c1.5,2.2,3.8,3.7,6.6,4c5,0.5,9.5-3.1,10-8.1c0.2-1.7-0.1-3.3-0.8-4.8
				c1.1,1.7,1.7,3.8,1.5,6c-0.4,3.7-2.9,6.6-6.1,7.7C582.1,120.9,585.5,117.1,586,112.2z"/>
		</g>
		<g>
			<path fill="#FFFFFF" d="M590.5,83c0,3.4-2.8,6.2-6.3,6.2c-3.4,0-6.2-2.8-6.2-6.3c0-3.4,2.8-6.2,6.3-6.2
				C587.7,76.7,590.5,79.5,590.5,83z M589.9,83c0-3.1-2.5-5.6-5.6-5.7c-3.1,0-5.6,2.5-5.7,5.6c0,2.7,1.9,5,4.5,5.5
				c-1.1-0.3-2.1-1.1-2.7-2.1c0.8,1,2.1,1.6,3.5,1.6c2.5,0,4.5-2,4.5-4.5c0-0.8-0.2-1.6-0.6-2.3c0.6,0.8,1,1.8,1,2.9
				c0,1.8-1.1,3.4-2.7,4.1C588.3,87.4,589.9,85.4,589.9,83z"/>
		</g>
	</g>
</g>
<g>
	<g>
		<path fill="#FFFFFF" d="M768.4,819.2c-31.4,0-56.9,25.5-56.9,56.9c0,31.4,25.5,56.9,56.9,56.9c31.4,0,56.9-25.5,56.9-56.9
			C825.3,844.7,799.8,819.2,768.4,819.2z M768.4,927.5c-28.4,0-51.5-23.1-51.5-51.5c0-28.4,23.1-51.5,51.5-51.5
			c28.4,0,51.5,23.1,51.5,51.5C819.9,904.5,796.8,927.5,768.4,927.5z"/>
		<path fill="#FFFFFF" d="M767.7,831c-28.9,0-44.7,21.5-40.6,24.2c3.3,3.2,19.8-7.8,40.6-7.3c20.8-0.5,37.3,10.5,40.6,7.3
			C812.3,852.5,796.6,831,767.7,831z"/>
	</g>
	<g>
		<g>
			<path fill="#FFFFFF" d="M781.1,725.7c0,3.8-3.1,6.9-6.9,6.9c-3.8,0-6.9-3.1-6.9-6.9c0-3.8,3.1-6.9,6.9-6.9
				C778,718.8,781.1,721.9,781.1,725.7z M780.4,725.7c0-3.5-2.8-6.3-6.3-6.3c-3.5,0-6.3,2.8-6.3,6.3c0,3.5,2.8,6.3,6.3,6.3
				C777.6,732,780.4,729.2,780.4,725.7z"/>
			<path fill="#FFFFFF" d="M774.1,720.2c-3.5,0-5.4,2.6-4.9,2.9c0.4,0.4,2.4-0.9,4.9-0.9c2.5-0.1,4.5,1.3,4.9,0.9
				C779.5,722.8,777.6,720.2,774.1,720.2z"/>
		</g>
		<g>
			<path fill="#FFFFFF" d="M754.7,666.6c0,4.3-3.5,7.7-7.7,7.7c-4.3,0-7.7-3.5-7.7-7.7c0-4.3,3.5-7.7,7.7-7.7
				C751.3,658.9,754.7,662.3,754.7,666.6z M754,666.6c0-3.8-3.1-7-7-7c-3.8,0-7,3.1-7,7c0,3.8,3.1,7,7,7
				C750.9,673.6,754,670.4,754,666.6z"/>
			<path fill="#FFFFFF" d="M746.9,660.5c-3.9,0-6.1,2.9-5.5,3.3c0.5,0.4,2.7-1.1,5.5-1c2.8-0.1,5.1,1.4,5.5,1
				C753,663.4,750.8,660.5,746.9,660.5z"/>
		</g>
		<g>
			<path fill="#FFFFFF" d="M785.4,581.7c0,5.2-4.2,9.5-9.5,9.5c-5.2,0-9.5-4.2-9.5-9.5c0-5.2,4.2-9.5,9.5-9.5
				C781.2,572.2,785.4,576.5,785.4,581.7z M784.5,581.7c0-4.7-3.8-8.6-8.6-8.6c-4.7,0-8.6,3.8-8.6,8.6c0,4.7,3.8,8.6,8.6,8.6
				C780.7,590.3,784.5,586.4,784.5,581.7z"/>
			<path fill="#FFFFFF" d="M775.9,574.2c-4.8,0-7.4,3.6-6.8,4c0.6,0.5,3.3-1.3,6.8-1.2c3.5-0.1,6.2,1.7,6.8,1.2
				C783.3,577.8,780.7,574.2,775.9,574.2z"/>
		</g>
		<g>
			<path fill="#FFFFFF" d="M791.2,551.9c0,6.3-5.1,11.5-11.5,11.5c-6.3,0-11.5-5.1-11.5-11.5c0-6.3,5.1-11.5,11.5-11.5
				C786.1,540.4,791.2,545.6,791.2,551.9z M790.1,551.9c0-5.7-4.7-10.4-10.4-10.4c-5.7,0-10.4,4.7-10.4,10.4
				c0,5.7,4.7,10.4,10.4,10.4C785.5,562.3,790.1,557.6,790.1,551.9z"/>
			<path fill="#FFFFFF" d="M779.6,542.8c-5.8,0-9,4.3-8.2,4.9c0.7,0.6,4-1.6,8.2-1.5c4.2-0.1,7.5,2.1,8.2,1.5
				C788.6,547.1,785.4,542.8,779.6,542.8z"/>
		</g>
		<g>
			<path fill="#FFFFFF" d="M789,513.4c0,6.1-4.9,11-11,11c-6.1,0-11-4.9-11-11c0-6.1,4.9-11,11-11C784.1,502.4,789,507.4,789,513.4z
				 M788,513.4c0-5.5-4.5-9.9-9.9-9.9c-5.5,0-9.9,4.5-9.9,9.9c0,5.5,4.5,9.9,9.9,9.9C783.5,523.3,788,518.9,788,513.4z"/>
			<path fill="#FFFFFF" d="M777.9,504.7c-5.6,0-8.6,4.1-7.8,4.7c0.6,0.6,3.8-1.5,7.8-1.4c4-0.1,7.2,2,7.8,1.4
				C786.5,508.9,783.5,504.7,777.9,504.7z"/>
		</g>
		<g>
			<path fill="#FFFFFF" d="M768.3,430.7c0,5-4,9-9,9c-5,0-9-4-9-9c0-5,4-9,9-9C764.3,421.8,768.3,425.8,768.3,430.7z M767.5,430.7
				c0-4.5-3.6-8.1-8.1-8.1c-4.5,0-8.1,3.6-8.1,8.1c0,4.5,3.6,8.1,8.1,8.1C763.9,438.9,767.5,435.2,767.5,430.7z"/>
			<path fill="#FFFFFF" d="M759.3,423.6c-4.6,0-7.1,3.4-6.4,3.8c0.5,0.5,3.1-1.2,6.4-1.1c3.3-0.1,5.9,1.7,6.4,1.1
				C766.3,427,763.8,423.6,759.3,423.6z"/>
		</g>
		<g>
			<path fill="#FFFFFF" d="M762.8,364c0,4.8-3.9,8.8-8.8,8.8c-4.8,0-8.8-3.9-8.8-8.8c0-4.8,3.9-8.8,8.8-8.8
				C758.9,355.3,762.8,359.2,762.8,364z M762,364c0-4.4-3.6-7.9-7.9-7.9c-4.4,0-7.9,3.6-7.9,7.9c0,4.4,3.6,7.9,7.9,7.9
				C758.4,372,762,368.4,762,364z"/>
			<path fill="#FFFFFF" d="M754,357.1c-4.4,0-6.9,3.3-6.3,3.7c0.5,0.5,3.1-1.2,6.3-1.1c3.2-0.1,5.7,1.6,6.3,1.1
				C760.8,360.4,758.4,357.1,754,357.1z"/>
		</g>
		<g>
			<path fill="#FFFFFF" d="M765.5,333.7c0,3.7-3,6.8-6.8,6.8c-3.7,0-6.8-3-6.8-6.8c0-3.7,3-6.8,6.8-6.8
				C762.5,327,765.5,330,765.5,333.7z M764.9,333.7c0-3.4-2.8-6.1-6.1-6.1c-3.4,0-6.1,2.8-6.1,6.1c0,3.4,2.8,6.1,6.1,6.1
				C762.1,339.9,764.9,337.1,764.9,333.7z"/>
			<path fill="#FFFFFF" d="M758.7,328.4c-3.4,0-5.3,2.6-4.8,2.9c0.4,0.4,2.4-0.9,4.8-0.9c2.5-0.1,4.4,1.2,4.8,0.9
				C764,330.9,762.1,328.4,758.7,328.4z"/>
		</g>
		<g>
			<path fill="#FFFFFF" d="M802.3,298.9c0,4-3.2,7.2-7.2,7.2c-4,0-7.2-3.2-7.2-7.2c0-4,3.2-7.2,7.2-7.2
				C799.1,291.7,802.3,294.9,802.3,298.9z M801.6,298.9c0-3.6-2.9-6.5-6.5-6.5c-3.6,0-6.5,2.9-6.5,6.5c0,3.6,2.9,6.5,6.5,6.5
				C798.7,305.4,801.6,302.5,801.6,298.9z"/>
			<path fill="#FFFFFF" d="M795,293.2c-3.7,0-5.7,2.7-5.1,3.1c0.4,0.4,2.5-1,5.1-0.9c2.6-0.1,4.7,1.3,5.1,0.9
				C800.6,295.9,798.6,293.2,795,293.2z"/>
		</g>
		<g>
			<path fill="#FFFFFF" d="M757.3,200.5c0,4.3-3.5,7.8-7.8,7.8c-4.3,0-7.8-3.5-7.8-7.8c0-4.3,3.5-7.8,7.8-7.8
				C753.8,192.7,757.3,196.2,757.3,200.5z M756.6,200.5c0-3.9-3.2-7.1-7.1-7.1c-3.9,0-7.1,3.2-7.1,7.1c0,3.9,3.2,7.1,7.1,7.1
				C753.4,207.6,756.6,204.4,756.6,200.5z"/>
			<path fill="#FFFFFF" d="M749.4,194.4c-4,0-6.1,2.9-5.6,3.3c0.5,0.4,2.7-1.1,5.6-1c2.8-0.1,5.1,1.4,5.6,1
				C755.5,197.3,753.4,194.4,749.4,194.4z"/>
		</g>
		<g>
			<path fill="#FFFFFF" d="M798.3,138.5c0,5.9-4.8,10.7-10.7,10.7c-5.9,0-10.7-4.8-10.7-10.7c0-5.9,4.8-10.7,10.7-10.7
				C793.5,127.8,798.3,132.6,798.3,138.5z M797.3,138.5c0-5.3-4.3-9.7-9.7-9.7c-5.3,0-9.7,4.3-9.7,9.7c0,5.3,4.3,9.7,9.7,9.7
				C792.9,148.2,797.3,143.8,797.3,138.5z"/>
			<path fill="#FFFFFF" d="M787.4,130c-5.4,0-8.4,4-7.6,4.5c0.6,0.6,3.7-1.5,7.6-1.4c3.9-0.1,7,2,7.6,1.4
				C795.8,134.1,792.9,130,787.4,130z"/>
		</g>
		<g>
			<path fill="#FFFFFF" d="M767.8,99.9c0,5.9-4.8,10.7-10.7,10.7c-5.9,0-10.7-4.8-10.7-10.7c0-5.9,4.8-10.7,10.7-10.7
				C763,89.2,767.8,94,767.8,99.9z M766.8,99.9c0-5.3-4.3-9.7-9.7-9.7c-5.3,0-9.7,4.3-9.7,9.7c0,5.3,4.3,9.7,9.7,9.7
				C762.5,109.6,766.8,105.3,766.8,99.9z"/>
			<path fill="#FFFFFF" d="M757,91.4c-5.4,0-8.4,4-7.6,4.5c0.6,0.6,3.7-1.5,7.6-1.4c3.9-0.1,7,2,7.6,1.4
				C765.4,95.5,762.4,91.4,757,91.4z"/>
		</g>
	</g>
</g>
<g>
	<g>
		<path fill="#FFFFFF" d="M989.2,932.6c-13.2,0-25.9-4.7-36-13.5c-11.1-9.6-17.9-23-18.9-37.7c-1.1-14.7,3.7-28.9,13.3-40.1
			c9.6-11.1,23-17.9,37.7-18.9c14.7-1,28.9,3.7,40.1,13.3c11.1,9.6,17.9,23,18.9,37.7c1.1,14.7-3.7,28.9-13.3,40.1
			c-9.6,11.1-23,17.9-37.7,18.9C991.9,932.5,990.5,932.6,989.2,932.6z M989.4,827.2c-1.2,0-2.4,0-3.7,0.1
			c-13.4,1-25.6,7.1-34.3,17.2s-13.1,23.1-12.1,36.4s7.1,25.6,17.2,34.3c10.1,8.8,23.1,13.1,36.4,12.1c13.4-1,25.6-7.1,34.3-17.2
			c8.8-10.1,13.1-23.1,12.1-36.4s-7.1-25.6-17.2-34.3l0,0C1012.9,831.5,1001.4,827.2,989.4,827.2z"/>
		<path fill="#FFFFFF" d="M946.8,886.2c-1.2,0-2.3-0.9-2.5-2.1c-1.9-13.1,1.9-26.4,10.6-36.4c10.4-12,26-17.7,41.7-15.1
			c1.4,0.2,2.3,1.5,2.1,2.9c-0.2,1.4-1.5,2.3-2.9,2.1c-14-2.3-27.9,2.7-37.1,13.4c-7.7,8.9-11.2,20.7-9.4,32.4
			c0.2,1.4-0.7,2.6-2.1,2.8C947,886.2,946.9,886.2,946.8,886.2z"/>
		<path fill="#FFFFFF" d="M961.2,912.4c-0.6,0-1.2-0.2-1.6-0.6c-5.5-4.8-9.8-10.8-12.5-17.5c-0.5-1.3,0.1-2.7,1.4-3.2
			c1.3-0.5,2.7,0.1,3.2,1.4c2.4,6,6.1,11.3,11.1,15.6c1,0.9,1.2,2.5,0.3,3.5C962.6,912.1,961.9,912.4,961.2,912.4z"/>
	</g>
	<g>
		<g>
			<path fill="#FFFFFF" d="M989.1,710.2c7.8,5.3,17.2,7.2,26.4,5.4c9.2-1.8,17.2-7.1,22.5-14.9c5.3-7.8,7.2-17.2,5.4-26.4
				c-1.8-9.2-7.1-17.2-14.9-22.5c-7.8-5.3-17.2-7.2-26.4-5.4c-9.2,1.8-17.2,7.1-22.5,14.9c-5.3,7.8-7.2,17.2-5.4,26.4
				c1.6,8.4,6.1,15.8,12.8,21C987.7,709.2,988.4,709.7,989.1,710.2z M1040.3,674.9L1040.3,674.9c1.6,8.4-0.1,16.9-4.9,24
				c-4.8,7.1-12.1,11.9-20.5,13.5s-16.9-0.1-24-4.9c-7.1-4.8-11.9-12.1-13.5-20.5c-1.6-8.4,0.1-16.9,4.9-24
				c4.8-7.1,12.1-11.9,20.5-13.5c8.4-1.6,16.9,0.1,24,4.9c0.7,0.4,1.3,0.9,1.9,1.4C1034.7,660.5,1038.9,667.2,1040.3,674.9z"/>
			<path fill="#FFFFFF" d="M984,668.6c-0.6-0.5-0.8-1.4-0.4-2c4.2-7.4,11.4-12.5,19.7-14.1c10-1.9,20,1.4,26.9,8.9
				c0.6,0.6,0.6,1.7-0.1,2.3c-0.6,0.6-1.7,0.6-2.3-0.1c-6.1-6.7-15.1-9.6-24-7.9c-7.4,1.4-13.8,6-17.5,12.6c-0.4,0.8-1.4,1-2.2,0.6
				C984.1,668.7,984.1,668.7,984,668.6z"/>
			<path fill="#FFFFFF" d="M980.9,687.5c-0.3-0.2-0.5-0.6-0.6-1c-0.9-4.6-0.7-9.3,0.6-13.7c0.2-0.8,1.1-1.3,2-1.1
				c0.8,0.2,1.3,1.1,1.1,2c-1.2,4-1.4,8.1-0.6,12.2c0.2,0.9-0.4,1.7-1.3,1.9C981.7,687.9,981.3,687.7,980.9,687.5z"/>
		</g>
		<g>
			<path fill="#FFFFFF" d="M964.1,588.1c1.5,1.7,3.5,2.7,5.7,2.8c2.2,0.2,4.4-0.6,6-2c1.7-1.5,2.7-3.5,2.8-5.7c0.2-2.2-0.6-4.4-2-6
				c-1.5-1.7-3.5-2.7-5.7-2.8c-2.2-0.2-4.4,0.6-6,2c-1.7,1.5-2.7,3.5-2.8,5.7c-0.1,2,0.4,4,1.6,5.6
				C963.8,587.8,963.9,588,964.1,588.1z M977.9,583.2L977.9,583.2c-0.1,2-1.1,3.9-2.6,5.2c-1.5,1.3-3.5,2-5.5,1.8s-3.9-1.1-5.2-2.6
				c-1.3-1.5-2-3.5-1.8-5.5c0.1-2,1.1-3.9,2.6-5.2c1.5-1.3,3.5-2,5.5-1.8c2,0.1,3.9,1.1,5.2,2.6c0.1,0.1,0.2,0.3,0.3,0.4
				C977.5,579.6,978,581.4,977.9,583.2z"/>
			<path fill="#FFFFFF" d="M965.4,578.3c-0.1-0.1-0.1-0.4,0-0.5c1.4-1.4,3.4-2.2,5.4-2c2.4,0.2,4.5,1.5,5.6,3.7
				c0.1,0.2,0,0.4-0.2,0.5c-0.2,0.1-0.4,0-0.5-0.2c-1-1.9-2.8-3.1-5-3.3c-1.8-0.1-3.5,0.5-4.8,1.8
				C965.9,578.5,965.6,578.5,965.4,578.3C965.5,578.4,965.4,578.4,965.4,578.3z"/>
			<path fill="#FFFFFF" d="M963.6,582.4c-0.1-0.1-0.1-0.2-0.1-0.3c0.1-1.1,0.4-2.2,1-3.1c0.1-0.2,0.3-0.2,0.5-0.1
				c0.2,0.1,0.2,0.3,0.1,0.5c-0.5,0.8-0.8,1.8-0.9,2.7c0,0.2-0.2,0.4-0.4,0.3C963.7,582.6,963.6,582.5,963.6,582.4z"/>
		</g>
		<g>
			<path fill="#FFFFFF" d="M963.2,507.1c5.9,6.6,14.1,10.4,22.9,10.9c8.8,0.4,17.3-2.6,23.9-8.5c6.6-5.9,10.4-14.1,10.9-22.9
				c0.4-8.8-2.6-17.3-8.5-23.9c-5.9-6.6-14.1-10.4-22.9-10.9c-8.8-0.4-17.3,2.6-23.9,8.5c-6.6,5.9-10.4,14.1-10.9,22.9
				c-0.4,8,2,15.8,6.9,22C962.1,505.9,962.6,506.5,963.2,507.1z M1017.8,486.5L1017.8,486.5c-0.4,8-3.9,15.4-9.9,20.8
				c-6,5.4-13.7,8.1-21.7,7.7c-8-0.4-15.4-3.9-20.8-9.9c-5.4-6-8.1-13.7-7.7-21.7c0.4-8,3.9-15.4,9.9-20.8c6-5.4,13.7-8.1,21.7-7.7
				s15.4,3.9,20.8,9.9c0.5,0.5,1,1.1,1.4,1.7C1015.9,472.1,1018.2,479.2,1017.8,486.5z"/>
			<path fill="#FFFFFF" d="M967.9,468.1c-0.5-0.6-0.4-1.4,0.1-2c5.5-5.8,13.2-8.8,21.2-8.4c9.5,0.5,18,5.8,22.6,14.2
				c0.4,0.7,0.1,1.6-0.6,2c-0.7,0.4-1.6,0.1-2-0.6c-4.1-7.5-11.6-12.2-20.1-12.6c-7.1-0.4-13.9,2.4-18.8,7.5
				c-0.6,0.6-1.5,0.6-2.1,0.1C968,468.2,967.9,468.1,967.9,468.1z"/>
			<path fill="#FFFFFF" d="M960.8,484.5c-0.2-0.3-0.3-0.6-0.3-1c0.2-4.4,1.5-8.6,3.7-12.4c0.4-0.7,1.3-1,2.1-0.5
				c0.7,0.4,1,1.3,0.5,2.1c-2,3.4-3.1,7.1-3.3,11c0,0.8-0.7,1.5-1.6,1.4C961.4,485.1,961.1,484.9,960.8,484.5z"/>
		</g>
		<g>
			<path fill="#FFFFFF" d="M994,404.9c4.4-0.2,8.5-2.2,11.5-5.5c3-3.3,4.5-7.5,4.3-12c-0.2-4.4-2.2-8.5-5.5-11.5
				c-3.3-3-7.5-4.5-12-4.3c-4.4,0.2-8.5,2.2-11.5,5.5c-3,3.3-4.5,7.5-4.3,12c0.2,4.4,2.2,8.5,5.5,11.5c3,2.7,6.8,4.2,10.8,4.3
				C993.2,405,993.6,405,994,404.9z M1003.3,377.1L1003.3,377.1c3,2.7,4.8,6.4,5,10.4c0.2,4-1.2,7.9-3.9,10.9c-2.7,3-6.4,4.8-10.4,5
				c-4,0.2-7.9-1.2-10.9-3.9c-3-2.7-4.8-6.4-5-10.4c-0.2-4,1.2-7.9,3.9-10.9c2.7-3,6.4-4.8,10.4-5c0.4,0,0.7,0,1.1,0
				C997.1,373.3,1000.6,374.7,1003.3,377.1z"/>
			<path fill="#FFFFFF" d="M980.3,390.7c-0.4,0-0.7-0.3-0.7-0.7c-0.5-4,0.7-7.9,3.4-10.9c3.2-3.6,7.9-5.2,12.7-4.3
				c0.4,0.1,0.7,0.5,0.6,0.9c-0.1,0.4-0.5,0.7-0.9,0.6c-4.2-0.8-8.4,0.6-11.3,3.8c-2.4,2.6-3.5,6.2-3.1,9.7c0.1,0.4-0.2,0.8-0.7,0.8
				C980.4,390.7,980.3,390.7,980.3,390.7z"/>
			<path fill="#FFFFFF" d="M984.5,398.7c-0.2,0-0.3-0.1-0.5-0.2c-1.6-1.5-2.9-3.3-3.6-5.4c-0.1-0.4,0.1-0.8,0.4-1
				c0.4-0.1,0.8,0.1,1,0.4c0.7,1.8,1.8,3.4,3.2,4.8c0.3,0.3,0.3,0.8,0.1,1.1C984.9,398.6,984.7,398.7,984.5,398.7z"/>
		</g>
		<g>
			<path fill="#FFFFFF" d="M920.6,306.1c3.1,5.1,8,8.8,13.8,10.2c5.8,1.4,11.8,0.5,17-2.6c5.1-3.1,8.8-8,10.2-13.8
				c1.4-5.8,0.5-11.8-2.6-17c-3.1-5.1-8-8.8-13.8-10.2c-5.8-1.4-11.8-0.5-17,2.6c-5.1,3.1-8.8,8-10.2,13.8
				c-1.3,5.3-0.7,10.7,1.8,15.5C920,305.1,920.3,305.6,920.6,306.1z M959.6,299.4L959.6,299.4c-1.3,5.3-4.6,9.8-9.3,12.6
				c-4.7,2.8-10.2,3.6-15.4,2.3c-5.3-1.3-9.8-4.6-12.6-9.3c-2.8-4.7-3.6-10.2-2.3-15.4c1.3-5.3,4.6-9.8,9.3-12.6
				c4.7-2.8,10.2-3.6,15.4-2.3c5.3,1.3,9.8,4.6,12.6,9.3c0.3,0.4,0.5,0.9,0.7,1.3C960.2,289.7,960.8,294.6,959.6,299.4z"/>
			<path fill="#FFFFFF" d="M928.8,280.7c-0.2-0.4-0.1-1,0.3-1.3c4.4-3.1,9.9-4.2,15.2-2.9c6.3,1.6,11.2,6.2,13.2,12.3
				c0.2,0.5-0.1,1.1-0.7,1.3c-0.5,0.2-1.1-0.1-1.3-0.7c-1.8-5.5-6.1-9.6-11.7-11c-4.7-1.2-9.6-0.2-13.5,2.6
				c-0.5,0.3-1.1,0.2-1.4-0.2C928.8,280.8,928.8,280.8,928.8,280.7z"/>
			<path fill="#FFFFFF" d="M921.9,290.8c-0.1-0.2-0.1-0.5-0.1-0.7c0.7-2.9,2.1-5.5,4-7.7c0.4-0.4,1-0.5,1.4-0.1
				c0.4,0.4,0.5,1,0.1,1.4c-1.7,2-3,4.3-3.6,6.9c-0.1,0.5-0.7,0.9-1.2,0.7C922.3,291.2,922.1,291,921.9,290.8z"/>
		</g>
		<g>
			<path fill="#FFFFFF" d="M958.1,208.9c3.9,3.5,9,5.2,14.2,4.8c5.2-0.3,10-2.7,13.4-6.6c3.5-3.9,5.2-9,4.8-14.2
				c-0.3-5.2-2.7-10-6.6-13.4c-3.9-3.5-9-5.2-14.2-4.8c-5.2,0.3-10,2.7-13.4,6.6c-3.5,3.9-5.2,9-4.8,14.2c0.3,4.7,2.3,9.1,5.6,12.5
				C957.3,208.3,957.7,208.6,958.1,208.9z M988.7,193.1L988.7,193.1c0.3,4.7-1.3,9.3-4.4,12.9c-3.1,3.6-7.5,5.7-12.2,6
				s-9.3-1.3-12.9-4.4c-3.6-3.1-5.7-7.5-6-12.2c-0.3-4.7,1.3-9.3,4.4-12.9c3.1-3.6,7.5-5.7,12.2-6c4.7-0.3,9.3,1.3,12.9,4.4
				c0.3,0.3,0.6,0.6,0.9,0.9C986.7,184.8,988.5,188.8,988.7,193.1z"/>
			<path fill="#FFFFFF" d="M958.2,185.7c-0.3-0.3-0.3-0.8-0.1-1.2c2.8-3.8,7.2-6.1,11.8-6.4c5.6-0.4,10.9,2.2,14.2,6.8
				c0.3,0.4,0.2,1-0.2,1.2c-0.4,0.3-1,0.2-1.2-0.2c-2.9-4.1-7.6-6.4-12.6-6c-4.2,0.3-8,2.3-10.5,5.7
				C959.2,186,958.7,186.1,958.2,185.7C958.3,185.7,958.2,185.7,958.2,185.7z"/>
			<path fill="#FFFFFF" d="M955.2,195.8c-0.1-0.1-0.2-0.3-0.3-0.6c-0.2-2.6,0.3-5.2,1.3-7.5c0.2-0.4,0.7-0.7,1.2-0.5
				c0.4,0.2,0.7,0.7,0.5,1.2c-0.9,2.1-1.3,4.4-1.2,6.7c0,0.5-0.3,0.9-0.8,0.9C955.6,196.1,955.3,196,955.2,195.8z"/>
		</g>
		<g>
			<path fill="#FFFFFF" d="M960.5,132.4c10,4.5,21.1,4.9,31.4,1.1c10.3-3.9,18.4-11.5,22.9-21.5c4.5-10,4.9-21.1,1.1-31.4
				c-3.9-10.3-11.5-18.4-21.5-22.9c-10-4.5-21.1-4.9-31.4-1.1c-10.3,3.9-18.4,11.5-22.9,21.5c-4.5,10-4.9,21.1-1.1,31.4
				c3.5,9.3,10.1,16.9,18.8,21.6C958.7,131.6,959.6,132,960.5,132.4z M1012.5,82L1012.5,82c3.5,9.3,3.2,19.5-1,28.5
				c-4.1,9.1-11.5,16-20.9,19.5c-9.3,3.5-19.5,3.2-28.5-1c-9.1-4.1-16-11.5-19.5-20.9c-3.5-9.3-3.2-19.5,1-28.5s11.5-16,20.9-19.5
				c9.3-3.5,19.5-3.2,28.5,1c0.8,0.4,1.6,0.8,2.4,1.2C1003.3,66.6,1009.3,73.5,1012.5,82z"/>
			<path fill="#FFFFFF" d="M946.6,85.7c-0.8-0.4-1.2-1.4-0.9-2.3c3.4-9.3,10.6-16.6,19.9-20c11.1-4.2,23.3-2.3,32.6,4.9
				c0.8,0.6,1,1.8,0.3,2.6c-0.6,0.8-1.8,1-2.6,0.3c-8.3-6.5-19.2-8.1-29-4.4c-8.2,3.1-14.7,9.6-17.7,17.8c-0.4,1-1.4,1.5-2.4,1.1
				C946.8,85.8,946.7,85.8,946.6,85.7z"/>
			<path fill="#FFFFFF" d="M946.7,107.9c-0.4-0.2-0.7-0.5-0.9-1c-1.9-5.1-2.6-10.5-1.9-15.9c0.1-1,1-1.7,2.1-1.6
				c1,0.1,1.7,1,1.6,2.1c-0.6,4.8,0,9.6,1.7,14.1c0.4,1-0.1,2-1.1,2.4C947.7,108.2,947.2,108.2,946.7,107.9z"/>
		</g>
	</g>
</g>
<g>
	<g>
		<path fill="#FFFFFF" d="M1215.1,935.1c-31.8,0-57.7-25.9-57.7-57.7c0-31.8,25.9-57.7,57.7-57.7c31.8,0,57.7,25.9,57.7,57.7
			C1272.7,909.2,1246.9,935.1,1215.1,935.1z M1215.1,824.7c-29,0-52.7,23.6-52.7,52.7c0,29,23.6,52.7,52.7,52.7
			c29,0,52.7-23.6,52.7-52.7C1267.7,848.4,1244.1,824.7,1215.1,824.7z"/>
		<path fill="#FFFFFF" d="M1215.1,935.1c-31.8,0-57.7-25.9-57.7-57.7c0-31.8,25.9-57.7,57.7-57.7c31.8,0,57.7,25.9,57.7,57.7
			C1272.7,909.2,1246.9,935.1,1215.1,935.1z M1215.1,824.7c-29,0-52.7,23.6-52.7,52.7c0,29,23.6,52.7,52.7,52.7
			c29,0,52.7-23.6,52.7-52.7C1267.7,848.4,1244.1,824.7,1215.1,824.7z"/>
		<path fill="#FFFFFF" d="M1208.8,916.7c-18.2,0-35.2-7.2-47.9-20.2l-0.4-0.4l-0.2-0.5c-1.9-5.9-2.9-12-2.9-18.1
			c0-31.8,25.9-57.7,57.7-57.7c28.9,0,53.5,21.6,57.2,50.2l0.1,0.6l-0.2,0.5C1263,898.4,1237.6,916.7,1208.8,916.7z M1164.9,893.4
			c11.7,11.8,27.3,18.3,43.9,18.3c26.4,0,49.8-16.7,58.4-41.7c-3.6-25.9-25.9-45.3-52.1-45.3c-29,0-52.7,23.6-52.7,52.7
			C1162.4,882.8,1163.3,888.2,1164.9,893.4z"/>
		<path fill="#FFFFFF" d="M1169.4,878.3c-1.4,0-2.5-1.1-2.5-2.5c0-26.5,21.6-48.1,48.1-48.1c1.4,0,2.5,1.1,2.5,2.5s-1.1,2.5-2.5,2.5
			c-23.8,0-43.1,19.3-43.1,43.1C1171.9,877.2,1170.8,878.3,1169.4,878.3z"/>
	</g>
	<g>
		<g>
			<path fill="#FFFFFF" d="M1233.1,715c0-13.3-10.8-24.1-24.1-24.1c-13.3,0-24.1,10.8-24.1,24.1c0,13.3,10.8,24.1,24.1,24.1
				C1222.3,739.1,1233.1,728.3,1233.1,715z M1231,715c0,12.1-9.9,22-22,22c-12.1,0-22-9.9-22-22c0-12.1,9.9-22,22-22
				C1221.1,692.9,1231,702.8,1231,715z"/>
			<path fill="#FFFFFF" d="M1233.1,715c0-13.3-10.8-24.1-24.1-24.1c-13.3,0-24.1,10.8-24.1,24.1c0,13.3,10.8,24.1,24.1,24.1
				C1222.3,739.1,1233.1,728.3,1233.1,715z M1231,715c0,12.1-9.9,22-22,22c-12.1,0-22-9.9-22-22c0-12.1,9.9-22,22-22
				C1221.1,692.9,1231,702.8,1231,715z"/>
			<path fill="#FFFFFF" d="M1232.8,712.3l0.1-0.2l0-0.2c-1.5-12-11.8-21-23.9-21c-13.3,0-24.1,10.8-24.1,24.1c0,2.6,0.4,5.1,1.2,7.6
				l0.1,0.2l0.2,0.2c5.3,5.5,12.4,8.5,20,8.5C1218.4,731.4,1229,723.7,1232.8,712.3z M1186.9,715c0-12.1,9.9-22,22-22
				c11,0,20.3,8.1,21.8,18.9c-3.6,10.4-13.4,17.4-24.4,17.4c-6.9,0-13.5-2.7-18.3-7.6C1187.3,719.5,1186.9,717.2,1186.9,715z"/>
			<path fill="#FFFFFF" d="M1189.9,715.3c-0.6,0-1-0.5-1-1c0-11.1,9-20.1,20.1-20.1c0.6,0,1,0.5,1,1s-0.5,1-1,1c-9.9,0-18,8.1-18,18
				C1190.9,714.9,1190.4,715.3,1189.9,715.3z"/>
		</g>
		<g>
			<path fill="#FFFFFF" d="M1232.3,648.1c0-7.6-6.2-13.8-13.8-13.8c-7.6,0-13.8,6.2-13.8,13.8c0,7.6,6.2,13.8,13.8,13.8
				C1226.1,661.9,1232.3,655.7,1232.3,648.1z M1231.1,648.1c0,6.9-5.7,12.6-12.6,12.6c-6.9,0-12.6-5.7-12.6-12.6
				c0-6.9,5.7-12.6,12.6-12.6C1225.4,635.5,1231.1,641.1,1231.1,648.1z"/>
			<path fill="#FFFFFF" d="M1232.3,648.1c0-7.6-6.2-13.8-13.8-13.8c-7.6,0-13.8,6.2-13.8,13.8c0,7.6,6.2,13.8,13.8,13.8
				C1226.1,661.9,1232.3,655.7,1232.3,648.1z M1231.1,648.1c0,6.9-5.7,12.6-12.6,12.6c-6.9,0-12.6-5.7-12.6-12.6
				c0-6.9,5.7-12.6,12.6-12.6C1225.4,635.5,1231.1,641.1,1231.1,648.1z"/>
			<path fill="#FFFFFF" d="M1232.1,646.6l0-0.1l0-0.1c-0.9-6.8-6.8-12-13.7-12c-7.6,0-13.8,6.2-13.8,13.8c0,1.5,0.2,2.9,0.7,4.3
				l0,0.1l0.1,0.1c3,3.1,7.1,4.8,11.4,4.8C1223.8,657.5,1229.9,653.1,1232.1,646.6z M1205.9,648.1c0-6.9,5.7-12.6,12.6-12.6
				c6.3,0,11.6,4.6,12.5,10.8c-2.1,6-7.7,10-14,10c-4,0-7.7-1.6-10.5-4.4C1206.1,650.7,1205.9,649.4,1205.9,648.1z"/>
			<path fill="#FFFFFF" d="M1207.5,648.3c-0.3,0-0.6-0.3-0.6-0.6c0-6.3,5.2-11.5,11.5-11.5c0.3,0,0.6,0.3,0.6,0.6
				c0,0.3-0.3,0.6-0.6,0.6c-5.7,0-10.3,4.6-10.3,10.3C1208.1,648,1207.9,648.3,1207.5,648.3z"/>
		</g>
		<g>
			<path fill="#FFFFFF" d="M1182,570.5c0-7.4-6.1-13.5-13.5-13.5c-7.4,0-13.5,6.1-13.5,13.5c0,7.4,6.1,13.5,13.5,13.5
				C1175.9,584.1,1182,578,1182,570.5z M1180.8,570.5c0,6.8-5.5,12.3-12.3,12.3c-6.8,0-12.3-5.5-12.3-12.3c0-6.8,5.5-12.3,12.3-12.3
				C1175.3,558.2,1180.8,563.7,1180.8,570.5z"/>
			<path fill="#FFFFFF" d="M1182,570.5c0-7.4-6.1-13.5-13.5-13.5c-7.4,0-13.5,6.1-13.5,13.5c0,7.4,6.1,13.5,13.5,13.5
				C1175.9,584.1,1182,578,1182,570.5z M1180.8,570.5c0,6.8-5.5,12.3-12.3,12.3c-6.8,0-12.3-5.5-12.3-12.3c0-6.8,5.5-12.3,12.3-12.3
				C1175.3,558.2,1180.8,563.7,1180.8,570.5z"/>
			<path fill="#FFFFFF" d="M1181.8,569.1l0-0.1l0-0.1c-0.9-6.7-6.6-11.8-13.4-11.8c-7.4,0-13.5,6.1-13.5,13.5c0,1.4,0.2,2.9,0.7,4.2
				l0,0.1l0.1,0.1c3,3.1,7,4.7,11.2,4.7C1173.7,579.7,1179.7,575.5,1181.8,569.1z M1156.1,570.5c0-6.8,5.5-12.3,12.3-12.3
				c6.1,0,11.4,4.6,12.2,10.6c-2,5.8-7.5,9.8-13.7,9.8c-3.9,0-7.5-1.5-10.3-4.3C1156.3,573.1,1156.1,571.8,1156.1,570.5z"/>
			<path fill="#FFFFFF" d="M1157.8,570.8c-0.3,0-0.6-0.3-0.6-0.6c0-6.2,5.1-11.3,11.3-11.3c0.3,0,0.6,0.3,0.6,0.6s-0.3,0.6-0.6,0.6
				c-5.6,0-10.1,4.5-10.1,10.1C1158.3,570.5,1158.1,570.8,1157.8,570.8z"/>
		</g>
		<g>
			<path fill="#FFFFFF" d="M1171.7,487.5c0-12.7-10.3-23-23-23c-12.7,0-23,10.3-23,23c0,12.7,10.3,23,23,23
				C1161.3,510.6,1171.7,500.2,1171.7,487.5z M1169.7,487.5c0,11.6-9.4,21-21,21c-11.6,0-21-9.4-21-21c0-11.6,9.4-21,21-21
				C1160.2,466.5,1169.7,475.9,1169.7,487.5z"/>
			<path fill="#FFFFFF" d="M1171.7,487.5c0-12.7-10.3-23-23-23c-12.7,0-23,10.3-23,23c0,12.7,10.3,23,23,23
				C1161.3,510.6,1171.7,500.2,1171.7,487.5z M1169.7,487.5c0,11.6-9.4,21-21,21c-11.6,0-21-9.4-21-21c0-11.6,9.4-21,21-21
				C1160.2,466.5,1169.7,475.9,1169.7,487.5z"/>
			<path fill="#FFFFFF" d="M1171.4,485l0.1-0.2l0-0.2c-1.5-11.4-11.3-20.1-22.8-20.1c-12.7,0-23,10.3-23,23c0,2.5,0.4,4.9,1.2,7.2
				l0.1,0.2l0.2,0.2c5.1,5.2,11.9,8.1,19.1,8.1C1157.6,503.2,1167.8,495.9,1171.4,485z M1127.6,487.5c0-11.6,9.4-21,21-21
				c10.5,0,19.4,7.8,20.8,18.1c-3.4,10-12.8,16.6-23.3,16.6c-6.6,0-12.9-2.6-17.5-7.3C1127.9,491.9,1127.6,489.7,1127.6,487.5z"/>
			<path fill="#FFFFFF" d="M1130.4,487.9c-0.6,0-1-0.4-1-1c0-10.6,8.6-19.2,19.2-19.2c0.6,0,1,0.4,1,1c0,0.6-0.4,1-1,1
				c-9.5,0-17.2,7.7-17.2,17.2C1131.4,487.5,1130.9,487.9,1130.4,487.9z"/>
		</g>
		<g>
			<path fill="#FFFFFF" d="M1238.7,413c0-11.1-9.1-20.2-20.2-20.2c-11.1,0-20.2,9.1-20.2,20.2c0,11.1,9.1,20.2,20.2,20.2
				C1229.6,433.2,1238.7,424.1,1238.7,413z M1236.9,413c0,10.2-8.3,18.5-18.4,18.5c-10.2,0-18.5-8.3-18.5-18.5
				c0-10.2,8.3-18.5,18.5-18.5C1228.6,394.5,1236.9,402.8,1236.9,413z"/>
			<path fill="#FFFFFF" d="M1238.7,413c0-11.1-9.1-20.2-20.2-20.2c-11.1,0-20.2,9.1-20.2,20.2c0,11.1,9.1,20.2,20.2,20.2
				C1229.6,433.2,1238.7,424.1,1238.7,413z M1236.9,413c0,10.2-8.3,18.5-18.4,18.5c-10.2,0-18.5-8.3-18.5-18.5
				c0-10.2,8.3-18.5,18.5-18.5C1228.6,394.5,1236.9,402.8,1236.9,413z"/>
			<path fill="#FFFFFF" d="M1238.4,410.7l0.1-0.2l0-0.2c-1.3-10-9.9-17.6-20-17.6c-11.1,0-20.2,9.1-20.2,20.2c0,2.2,0.3,4.3,1,6.3
				l0.1,0.2l0.1,0.1c4.4,4.6,10.4,7.1,16.8,7.1C1226.3,426.7,1235.2,420.3,1238.4,410.7z M1200,413c0-10.2,8.3-18.5,18.5-18.5
				c9.2,0,17,6.8,18.3,15.9c-3,8.7-11.2,14.6-20.5,14.6c-5.8,0-11.3-2.3-15.4-6.4C1200.3,416.8,1200,414.9,1200,413z"/>
			<path fill="#FFFFFF" d="M1202.5,413.3c-0.5,0-0.9-0.4-0.9-0.9c0-9.3,7.6-16.9,16.9-16.9c0.5,0,0.9,0.4,0.9,0.9s-0.4,0.9-0.9,0.9
				c-8.3,0-15.1,6.8-15.1,15.1C1203.3,412.9,1202.9,413.3,1202.5,413.3z"/>
		</g>
		<g>
			<path fill="#FFFFFF" d="M1246,328c0-6.9-5.6-12.5-12.5-12.5c-6.9,0-12.5,5.6-12.5,12.5c0,6.9,5.6,12.5,12.5,12.5
				C1240.4,340.5,1246,334.9,1246,328z M1245,328c0,6.3-5.1,11.4-11.4,11.4c-6.3,0-11.4-5.1-11.4-11.4c0-6.3,5.1-11.4,11.4-11.4
				C1239.8,316.7,1245,321.8,1245,328z"/>
			<path fill="#FFFFFF" d="M1246,328c0-6.9-5.6-12.5-12.5-12.5c-6.9,0-12.5,5.6-12.5,12.5c0,6.9,5.6,12.5,12.5,12.5
				C1240.4,340.5,1246,334.9,1246,328z M1245,328c0,6.3-5.1,11.4-11.4,11.4c-6.3,0-11.4-5.1-11.4-11.4c0-6.3,5.1-11.4,11.4-11.4
				C1239.8,316.7,1245,321.8,1245,328z"/>
			<path fill="#FFFFFF" d="M1245.9,326.7l0-0.1l0-0.1c-0.8-6.2-6.1-10.9-12.4-10.9c-6.9,0-12.5,5.6-12.5,12.5c0,1.3,0.2,2.7,0.6,3.9
				l0,0.1l0.1,0.1c2.7,2.8,6.4,4.4,10.3,4.4C1238.4,336.5,1243.9,332.6,1245.9,326.7z M1222.2,328c0-6.3,5.1-11.4,11.4-11.4
				c5.7,0,10.5,4.2,11.3,9.8c-1.9,5.4-6.9,9-12.6,9c-3.6,0-7-1.4-9.5-4C1222.4,330.4,1222.2,329.2,1222.2,328z"/>
			<path fill="#FFFFFF" d="M1223.7,328.2c-0.3,0-0.5-0.2-0.5-0.5c0-5.7,4.7-10.4,10.4-10.4c0.3,0,0.5,0.2,0.5,0.5
				c0,0.3-0.2,0.5-0.5,0.5c-5.1,0-9.3,4.2-9.3,9.3C1224.2,328,1224,328.2,1223.7,328.2z"/>
		</g>
		<g>
			<path fill="#FFFFFF" d="M1174.6,287.3c0-14.7-11.9-26.6-26.6-26.6c-14.7,0-26.6,11.9-26.6,26.6c0,14.7,11.9,26.6,26.6,26.6
				C1162.7,314,1174.6,302,1174.6,287.3z M1172.3,287.3c0,13.4-10.9,24.3-24.3,24.3c-13.4,0-24.3-10.9-24.3-24.3
				c0-13.4,10.9-24.3,24.3-24.3C1161.4,263,1172.3,273.9,1172.3,287.3z"/>
			<path fill="#FFFFFF" d="M1174.6,287.3c0-14.7-11.9-26.6-26.6-26.6c-14.7,0-26.6,11.9-26.6,26.6c0,14.7,11.9,26.6,26.6,26.6
				C1162.7,314,1174.6,302,1174.6,287.3z M1172.3,287.3c0,13.4-10.9,24.3-24.3,24.3c-13.4,0-24.3-10.9-24.3-24.3
				c0-13.4,10.9-24.3,24.3-24.3C1161.4,263,1172.3,273.9,1172.3,287.3z"/>
			<path fill="#FFFFFF" d="M1174.3,284.4l0.1-0.3l0-0.3c-1.7-13.2-13.1-23.2-26.4-23.2c-14.7,0-26.6,11.9-26.6,26.6
				c0,2.8,0.5,5.7,1.3,8.4l0.1,0.3l0.2,0.2c5.9,6,13.7,9.3,22.1,9.3C1158.4,305.5,1170.1,297,1174.3,284.4z M1123.6,287.3
				c0-13.4,10.9-24.3,24.3-24.3c12.1,0,22.4,9,24.1,20.9c-4,11.5-14.8,19.2-27,19.2c-7.7,0-14.9-3-20.3-8.4
				C1124,292.3,1123.6,289.9,1123.6,287.3z"/>
			<path fill="#FFFFFF" d="M1126.9,287.8c-0.6,0-1.2-0.5-1.2-1.2c0-12.3,10-22.2,22.2-22.2c0.6,0,1.2,0.5,1.2,1.2
				c0,0.6-0.5,1.2-1.2,1.2c-11,0-19.9,8.9-19.9,19.9C1128,287.2,1127.5,287.8,1126.9,287.8z"/>
		</g>
		<g>
			<path fill="#FFFFFF" d="M1181.4,234.6c0-14.6-11.9-26.5-26.5-26.5c-14.6,0-26.5,11.9-26.5,26.5c0,14.6,11.9,26.5,26.5,26.5
				C1169.5,261.1,1181.4,249.2,1181.4,234.6z M1179.1,234.6c0,13.3-10.9,24.2-24.2,24.2c-13.3,0-24.2-10.9-24.2-24.2
				c0-13.3,10.9-24.2,24.2-24.2C1168.2,210.3,1179.1,221.2,1179.1,234.6z"/>
			<path fill="#FFFFFF" d="M1181.4,234.6c0-14.6-11.9-26.5-26.5-26.5c-14.6,0-26.5,11.9-26.5,26.5c0,14.6,11.9,26.5,26.5,26.5
				C1169.5,261.1,1181.4,249.2,1181.4,234.6z M1179.1,234.6c0,13.3-10.9,24.2-24.2,24.2c-13.3,0-24.2-10.9-24.2-24.2
				c0-13.3,10.9-24.2,24.2-24.2C1168.2,210.3,1179.1,221.2,1179.1,234.6z"/>
			<path fill="#FFFFFF" d="M1181.1,231.6l0.1-0.3l0-0.3c-1.7-13.2-13-23.1-26.3-23.1c-14.6,0-26.5,11.9-26.5,26.5
				c0,2.8,0.5,5.6,1.3,8.3l0.1,0.3l0.2,0.2c5.8,6,13.6,9.3,22,9.3C1165.2,252.6,1176.9,244.2,1181.1,231.6z M1130.7,234.6
				c0-13.3,10.9-24.2,24.2-24.2c12,0,22.3,8.9,24,20.8c-4,11.5-14.7,19.2-26.9,19.2c-7.6,0-14.8-3-20.2-8.4
				C1131.1,239.5,1130.7,237.1,1130.7,234.6z"/>
			<path fill="#FFFFFF" d="M1133.9,235c-0.6,0-1.1-0.5-1.1-1.1c0-12.2,9.9-22.1,22.1-22.1c0.6,0,1.1,0.5,1.1,1.1
				c0,0.6-0.5,1.1-1.1,1.1c-10.9,0-19.8,8.9-19.8,19.8C1135,234.5,1134.5,235,1133.9,235z"/>
		</g>
		<g>
			<path fill="#FFFFFF" d="M1201.5,164.2c0-18.7-15.2-33.8-33.8-33.8c-18.7,0-33.8,15.2-33.8,33.8c0,18.7,15.2,33.8,33.8,33.8
				C1186.3,198,1201.5,182.8,1201.5,164.2z M1198.6,164.2c0,17-13.9,30.9-30.9,30.9c-17,0-30.9-13.9-30.9-30.9
				c0-17,13.9-30.9,30.9-30.9C1184.7,133.3,1198.6,147.1,1198.6,164.2z"/>
			<path fill="#FFFFFF" d="M1201.5,164.2c0-18.7-15.2-33.8-33.8-33.8c-18.7,0-33.8,15.2-33.8,33.8c0,18.7,15.2,33.8,33.8,33.8
				C1186.3,198,1201.5,182.8,1201.5,164.2z M1198.6,164.2c0,17-13.9,30.9-30.9,30.9c-17,0-30.9-13.9-30.9-30.9
				c0-17,13.9-30.9,30.9-30.9C1184.7,133.3,1198.6,147.1,1198.6,164.2z"/>
			<path fill="#FFFFFF" d="M1201.1,160.4l0.1-0.3l0-0.3c-2.2-16.8-16.6-29.5-33.6-29.5c-18.7,0-33.8,15.2-33.8,33.8
				c0,3.6,0.6,7.2,1.7,10.6l0.1,0.3l0.2,0.2c7.5,7.7,17.4,11.9,28.1,11.9C1180.8,187.2,1195.8,176.5,1201.1,160.4z M1136.7,164.2
				c0-17,13.9-30.9,30.9-30.9c15.4,0,28.5,11.4,30.6,26.6c-5,14.6-18.8,24.5-34.3,24.5c-9.8,0-18.9-3.8-25.8-10.7
				C1137.2,170.5,1136.7,167.4,1136.7,164.2z"/>
			<path fill="#FFFFFF" d="M1140.8,164.7c-0.8,0-1.5-0.7-1.5-1.5c0-15.6,12.7-28.2,28.2-28.2c0.8,0,1.5,0.7,1.5,1.5
				c0,0.8-0.7,1.5-1.5,1.5c-14,0-25.3,11.4-25.3,25.3C1142.3,164,1141.7,164.7,1140.8,164.7z"/>
		</g>
		<g>
			<path fill="#FFFFFF" d="M1278.6,129.6c0-17.6-14.3-31.9-31.9-31.9c-17.6,0-31.9,14.3-31.9,31.9c0,17.6,14.3,31.9,31.9,31.9
				C1264.3,161.5,1278.6,147.2,1278.6,129.6z M1275.8,129.6c0,16.1-13.1,29.1-29.1,29.1c-16.1,0-29.1-13.1-29.1-29.1
				c0-16.1,13.1-29.1,29.1-29.1C1262.8,100.5,1275.8,113.5,1275.8,129.6z"/>
			<path fill="#FFFFFF" d="M1278.6,129.6c0-17.6-14.3-31.9-31.9-31.9c-17.6,0-31.9,14.3-31.9,31.9c0,17.6,14.3,31.9,31.9,31.9
				C1264.3,161.5,1278.6,147.2,1278.6,129.6z M1275.8,129.6c0,16.1-13.1,29.1-29.1,29.1c-16.1,0-29.1-13.1-29.1-29.1
				c0-16.1,13.1-29.1,29.1-29.1C1262.8,100.5,1275.8,113.5,1275.8,129.6z"/>
			<path fill="#FFFFFF" d="M1278.3,126.1l0.1-0.3l0-0.3c-2-15.8-15.6-27.8-31.6-27.8c-17.6,0-31.9,14.3-31.9,31.9
				c0,3.4,0.5,6.8,1.6,10l0.1,0.3l0.2,0.2c7,7.2,16.4,11.2,26.5,11.2C1259.1,151.3,1273.2,141.2,1278.3,126.1z M1217.6,129.6
				c0-16.1,13.1-29.1,29.1-29.1c14.5,0,26.8,10.7,28.8,25c-4.8,13.8-17.7,23-32.3,23c-9.2,0-17.8-3.6-24.3-10.1
				C1218.1,135.6,1217.6,132.6,1217.6,129.6z"/>
			<path fill="#FFFFFF" d="M1221.5,130.1c-0.8,0-1.4-0.6-1.4-1.4c0-14.7,11.9-26.6,26.6-26.6c0.8,0,1.4,0.6,1.4,1.4
				c0,0.8-0.6,1.4-1.4,1.4c-13.1,0-23.8,10.7-23.8,23.8C1222.9,129.5,1222.2,130.1,1221.5,130.1z"/>
		</g>
		<g>
			<path fill="#FFFFFF" d="M1273.4,74.5c0-11.6-9.4-21-21-21c-11.6,0-21,9.4-21,21c0,11.6,9.4,21,21,21
				C1264,95.5,1273.4,86.1,1273.4,74.5z M1271.6,74.5c0,10.6-8.6,19.2-19.2,19.2c-10.6,0-19.2-8.6-19.2-19.2
				c0-10.6,8.6-19.2,19.2-19.2C1263,55.3,1271.6,63.9,1271.6,74.5z"/>
			<path fill="#FFFFFF" d="M1273.4,74.5c0-11.6-9.4-21-21-21c-11.6,0-21,9.4-21,21c0,11.6,9.4,21,21,21
				C1264,95.5,1273.4,86.1,1273.4,74.5z M1271.6,74.5c0,10.6-8.6,19.2-19.2,19.2c-10.6,0-19.2-8.6-19.2-19.2
				c0-10.6,8.6-19.2,19.2-19.2C1263,55.3,1271.6,63.9,1271.6,74.5z"/>
			<path fill="#FFFFFF" d="M1273.2,72.2l0.1-0.2l0-0.2c-1.3-10.4-10.3-18.3-20.8-18.3c-11.6,0-21,9.4-21,21c0,2.2,0.4,4.5,1.1,6.6
				l0.1,0.2l0.1,0.2c4.6,4.8,10.8,7.4,17.4,7.4C1260.6,88.8,1269.9,82.1,1273.2,72.2z M1233.2,74.5c0-10.6,8.6-19.2,19.2-19.2
				c9.5,0,17.7,7.1,19,16.5c-3.1,9.1-11.7,15.2-21.3,15.2c-6.1,0-11.7-2.4-16-6.7C1233.5,78.4,1233.2,76.5,1233.2,74.5z"/>
			<path fill="#FFFFFF" d="M1235.8,74.8c-0.5,0-0.9-0.4-0.9-0.9c0-9.7,7.9-17.5,17.5-17.5c0.5,0,0.9,0.4,0.9,0.9s-0.4,0.9-0.9,0.9
				c-8.7,0-15.7,7.1-15.7,15.7C1236.7,74.4,1236.3,74.8,1235.8,74.8z"/>
		</g>
	</g>
</g>
</svg>
